<svg width="828" height="76" viewBox="0 0 828 76" fill="none" xmlns="http://www.w3.org/2000/svg">
<rect width="828" height="76" fill="#262626"/>
<path d="M68.28 44.14H67.56L72.54 33.74H74.5L68.9 45H66.86L61.24 33.74H63.28L68.28 44.14ZM81.6041 45.26C80.3107 45.26 79.1641 45.0133 78.1641 44.52C77.1774 44.0133 76.3974 43.32 75.8241 42.44C75.2641 41.5467 74.9841 40.52 74.9841 39.36C74.9841 38.1867 75.2507 37.16 75.7841 36.28C76.3174 35.4 77.0574 34.7133 78.0041 34.22C78.9507 33.7267 80.0374 33.48 81.2641 33.48C82.4774 33.48 83.5374 33.7467 84.4441 34.28C85.3507 34.8133 86.0507 35.5667 86.5441 36.54C87.0507 37.5 87.3041 38.62 87.3041 39.9H76.3841V38.44H86.5241L85.4441 39.1C85.4041 38.26 85.2041 37.5333 84.8441 36.92C84.4841 36.3067 83.9974 35.8333 83.3841 35.5C82.7707 35.1667 82.0574 35 81.2441 35C80.3641 35 79.5974 35.18 78.9441 35.54C78.2907 35.8867 77.7774 36.38 77.4041 37.02C77.0441 37.66 76.8641 38.4133 76.8641 39.28C76.8641 40.1867 77.0707 40.9733 77.4841 41.64C77.8974 42.3067 78.4774 42.82 79.2241 43.18C79.9707 43.54 80.8507 43.72 81.8641 43.72C82.7841 43.72 83.6841 43.5667 84.5641 43.26C85.4574 42.9533 86.2574 42.5333 86.9641 42V43.44C86.2707 44 85.4441 44.4467 84.4841 44.78C83.5241 45.1 82.5641 45.26 81.6041 45.26ZM89.5898 29.6H91.4298V45H89.5898V29.6ZM100.414 45.26C99.0941 45.26 97.9274 45.0133 96.9141 44.52C95.9141 44.0267 95.1341 43.3333 94.5741 42.44C94.0141 41.5467 93.7341 40.52 93.7341 39.36C93.7341 38.1867 94.0141 37.16 94.5741 36.28C95.1341 35.4 95.9141 34.7133 96.9141 34.22C97.9274 33.7267 99.0941 33.48 100.414 33.48C101.747 33.48 102.914 33.7267 103.914 34.22C104.914 34.7133 105.694 35.4 106.254 36.28C106.827 37.16 107.114 38.1867 107.114 39.36C107.114 40.52 106.827 41.5467 106.254 42.44C105.694 43.3333 104.914 44.0267 103.914 44.52C102.914 45.0133 101.747 45.26 100.414 45.26ZM100.414 43.72C101.401 43.72 102.254 43.5467 102.974 43.2C103.694 42.84 104.247 42.3333 104.634 41.68C105.034 41.0267 105.234 40.2533 105.234 39.36C105.234 38.48 105.034 37.7133 104.634 37.06C104.247 36.4067 103.694 35.9 102.974 35.54C102.254 35.18 101.401 35 100.414 35C99.4407 35 98.5874 35.18 97.8541 35.54C97.1341 35.9 96.5807 36.4067 96.1941 37.06C95.8074 37.7133 95.6141 38.48 95.6141 39.36C95.6141 40.2533 95.8074 41.0267 96.1941 41.68C96.5807 42.3333 97.1341 42.84 97.8541 43.2C98.5874 43.5467 99.4407 43.72 100.414 43.72ZM121.374 40.72C121.227 41.6133 120.861 42.4 120.274 43.08C119.701 43.76 118.967 44.2933 118.074 44.68C117.181 45.0667 116.194 45.26 115.114 45.26C113.861 45.26 112.754 45.0133 111.794 44.52C110.834 44.0133 110.081 43.32 109.534 42.44C109.001 41.5467 108.734 40.52 108.734 39.36C108.734 38.2 109.001 37.18 109.534 36.3C110.081 35.4067 110.834 34.7133 111.794 34.22C112.754 33.7267 113.861 33.48 115.114 33.48C116.194 33.48 117.181 33.6733 118.074 34.06C118.967 34.4333 119.701 34.96 120.274 35.64C120.861 36.32 121.227 37.1133 121.374 38.02H119.474C119.274 37.0867 118.774 36.3533 117.974 35.82C117.187 35.2733 116.234 35 115.114 35C114.207 35 113.414 35.18 112.734 35.54C112.067 35.9 111.547 36.4067 111.174 37.06C110.801 37.7 110.614 38.4667 110.614 39.36C110.614 40.2533 110.801 41.0267 111.174 41.68C111.547 42.3333 112.067 42.84 112.734 43.2C113.414 43.5467 114.207 43.72 115.114 43.72C116.247 43.72 117.207 43.4467 117.994 42.9C118.794 42.3533 119.287 41.6267 119.474 40.72H121.374ZM123.555 33.7L124.475 33.86L125.395 33.7V45H123.555V33.7ZM124.455 32.04C124.081 32.04 123.761 31.9267 123.495 31.7C123.241 31.46 123.115 31.16 123.115 30.8C123.115 30.4533 123.241 30.1667 123.495 29.94C123.761 29.7 124.081 29.58 124.455 29.58C124.855 29.58 125.181 29.7 125.435 29.94C125.688 30.1667 125.815 30.4533 125.815 30.8C125.815 31.16 125.688 31.46 125.435 31.7C125.181 31.9267 124.855 32.04 124.455 32.04ZM139.099 45L138.699 40.7L139.239 39.38L138.739 37.96L139.519 29.6H141.399L140.459 39.28L140.979 45H139.099ZM139.799 39.36C139.506 40.5333 139.052 41.5667 138.439 42.46C137.839 43.34 137.106 44.0267 136.239 44.52C135.386 45.0133 134.439 45.26 133.399 45.26C132.292 45.26 131.312 45.0133 130.459 44.52C129.606 44.0133 128.932 43.32 128.439 42.44C127.959 41.5467 127.719 40.52 127.719 39.36C127.719 38.1867 127.959 37.16 128.439 36.28C128.932 35.4 129.606 34.7133 130.459 34.22C131.312 33.7267 132.292 33.48 133.399 33.48C134.439 33.48 135.386 33.7267 136.239 34.22C137.106 34.7133 137.846 35.4 138.459 36.28C139.072 37.16 139.519 38.1867 139.799 39.36ZM129.599 39.36C129.599 40.2133 129.772 40.9667 130.119 41.62C130.479 42.2733 130.966 42.7867 131.579 43.16C132.206 43.52 132.912 43.7 133.699 43.7C134.499 43.7 135.232 43.52 135.899 43.16C136.579 42.7867 137.179 42.2733 137.699 41.62C138.232 40.9667 138.666 40.2133 138.999 39.36C138.666 38.5067 138.232 37.7533 137.699 37.1C137.179 36.4467 136.579 35.94 135.899 35.58C135.232 35.2067 134.499 35.02 133.699 35.02C132.912 35.02 132.206 35.2067 131.579 35.58C130.966 35.94 130.479 36.4467 130.119 37.1C129.772 37.7533 129.599 38.5067 129.599 39.36ZM154.411 45L154.011 40.74L154.511 39.36L154.011 38L154.411 33.74H156.291L155.771 39.36L156.291 45H154.411ZM155.131 39.36C154.838 40.5333 154.384 41.5667 153.771 42.46C153.171 43.34 152.438 44.0267 151.571 44.52C150.718 45.0133 149.771 45.26 148.731 45.26C147.624 45.26 146.644 45.0133 145.791 44.52C144.938 44.0133 144.264 43.32 143.771 42.44C143.291 41.5467 143.051 40.52 143.051 39.36C143.051 38.1867 143.291 37.16 143.771 36.28C144.264 35.4 144.938 34.7133 145.791 34.22C146.644 33.7267 147.624 33.48 148.731 33.48C149.771 33.48 150.718 33.7267 151.571 34.22C152.438 34.7133 153.178 35.4 153.791 36.28C154.404 37.16 154.851 38.1867 155.131 39.36ZM144.931 39.36C144.931 40.2133 145.104 40.9667 145.451 41.62C145.811 42.2733 146.298 42.7867 146.911 43.16C147.538 43.52 148.244 43.7 149.031 43.7C149.831 43.7 150.564 43.52 151.231 43.16C151.911 42.7867 152.511 42.2733 153.031 41.62C153.564 40.9667 153.998 40.2133 154.331 39.36C153.998 38.5067 153.564 37.7533 153.031 37.1C152.511 36.4467 151.911 35.94 151.231 35.58C150.564 35.2067 149.831 35.02 149.031 35.02C148.244 35.02 147.538 35.2067 146.911 35.58C146.298 35.94 145.811 36.4467 145.451 37.1C145.104 37.7533 144.931 38.5067 144.931 39.36ZM169.763 45L169.363 40.7L169.903 39.38L169.403 37.96L170.183 29.6H172.063L171.123 39.28L171.643 45H169.763ZM170.463 39.36C170.17 40.5333 169.716 41.5667 169.103 42.46C168.503 43.34 167.77 44.0267 166.903 44.52C166.05 45.0133 165.103 45.26 164.063 45.26C162.956 45.26 161.976 45.0133 161.123 44.52C160.27 44.0133 159.596 43.32 159.103 42.44C158.623 41.5467 158.383 40.52 158.383 39.36C158.383 38.1867 158.623 37.16 159.103 36.28C159.596 35.4 160.27 34.7133 161.123 34.22C161.976 33.7267 162.956 33.48 164.063 33.48C165.103 33.48 166.05 33.7267 166.903 34.22C167.77 34.7133 168.51 35.4 169.123 36.28C169.736 37.16 170.183 38.1867 170.463 39.36ZM160.263 39.36C160.263 40.2133 160.436 40.9667 160.783 41.62C161.143 42.2733 161.63 42.7867 162.243 43.16C162.87 43.52 163.576 43.7 164.363 43.7C165.163 43.7 165.896 43.52 166.563 43.16C167.243 42.7867 167.843 42.2733 168.363 41.62C168.896 40.9667 169.33 40.2133 169.663 39.36C169.33 38.5067 168.896 37.7533 168.363 37.1C167.843 36.4467 167.243 35.94 166.563 35.58C165.896 35.2067 165.163 35.02 164.363 35.02C163.576 35.02 162.87 35.2067 162.243 35.58C161.63 35.94 161.143 36.4467 160.783 37.1C160.436 37.7533 160.263 38.5067 160.263 39.36ZM190.602 45L190.202 40.74L190.702 39.36L190.202 38L190.602 33.74H192.482L191.962 39.36L192.482 45H190.602ZM191.322 39.36C191.029 40.5333 190.576 41.5667 189.962 42.46C189.362 43.34 188.629 44.0267 187.762 44.52C186.909 45.0133 185.962 45.26 184.922 45.26C183.816 45.26 182.836 45.0133 181.982 44.52C181.129 44.0133 180.456 43.32 179.962 42.44C179.482 41.5467 179.242 40.52 179.242 39.36C179.242 38.1867 179.482 37.16 179.962 36.28C180.456 35.4 181.129 34.7133 181.982 34.22C182.836 33.7267 183.816 33.48 184.922 33.48C185.962 33.48 186.909 33.7267 187.762 34.22C188.629 34.7133 189.369 35.4 189.982 36.28C190.596 37.16 191.042 38.1867 191.322 39.36ZM181.122 39.36C181.122 40.2133 181.296 40.9667 181.642 41.62C182.002 42.2733 182.489 42.7867 183.102 43.16C183.729 43.52 184.436 43.7 185.222 43.7C186.022 43.7 186.756 43.52 187.422 43.16C188.102 42.7867 188.702 42.2733 189.222 41.62C189.756 40.9667 190.189 40.2133 190.522 39.36C190.189 38.5067 189.756 37.7533 189.222 37.1C188.702 36.4467 188.102 35.94 187.422 35.58C186.756 35.2067 186.022 35.02 185.222 35.02C184.436 35.02 183.729 35.2067 183.102 35.58C182.489 35.94 182.002 36.4467 181.642 37.1C181.296 37.7533 181.122 38.5067 181.122 39.36ZM194.714 33.74H196.554L197.194 37.56V45H195.354V37.3L194.714 33.74ZM201.854 33.48C202.908 33.48 203.801 33.6933 204.534 34.12C205.268 34.5333 205.828 35.14 206.214 35.94C206.601 36.7267 206.794 37.68 206.794 38.8V45H204.954V39.12C204.954 37.7733 204.641 36.76 204.014 36.08C203.401 35.3867 202.501 35.04 201.314 35.04C200.488 35.04 199.761 35.2267 199.134 35.6C198.521 35.9733 198.041 36.4933 197.694 37.16C197.361 37.8133 197.194 38.58 197.194 39.46L196.454 38.94C196.548 37.82 196.834 36.8533 197.314 36.04C197.794 35.2267 198.421 34.6 199.194 34.16C199.981 33.7067 200.868 33.48 201.854 33.48ZM220.089 42.26V40.24L220.169 39.94V38.08L220.089 37.68V33.74H221.929V42C221.929 43.4667 221.629 44.6867 221.029 45.66C220.443 46.6333 219.643 47.36 218.629 47.84C217.616 48.32 216.463 48.56 215.169 48.56C214.196 48.56 213.289 48.42 212.449 48.14C211.623 47.8733 210.829 47.46 210.069 46.9V45.28C210.869 45.9333 211.689 46.3867 212.529 46.64C213.383 46.8933 214.229 47.02 215.069 47.02C216.696 47.02 217.936 46.5933 218.789 45.74C219.656 44.9 220.089 43.74 220.089 42.26ZM214.369 44.28C213.356 44.28 212.436 44.0533 211.609 43.6C210.796 43.1467 210.149 42.52 209.669 41.72C209.189 40.9067 208.949 39.96 208.949 38.88C208.949 37.7867 209.189 36.84 209.669 36.04C210.149 35.2267 210.796 34.6 211.609 34.16C212.436 33.7067 213.356 33.48 214.369 33.48C215.129 33.48 215.836 33.6 216.489 33.84C217.143 34.0667 217.736 34.3733 218.269 34.76C218.803 35.1467 219.256 35.58 219.629 36.06C220.003 36.54 220.289 37.0267 220.489 37.52C220.703 38 220.809 38.4533 220.809 38.88C220.809 39.4267 220.649 40.0133 220.329 40.64C220.023 41.2533 219.576 41.84 218.989 42.4C218.416 42.9467 217.736 43.4 216.949 43.76C216.176 44.1067 215.316 44.28 214.369 44.28ZM214.869 42.8C215.909 42.8 216.869 42.4933 217.749 41.88C218.629 41.2667 219.436 40.2667 220.169 38.88C219.449 37.4667 218.643 36.46 217.749 35.86C216.869 35.2467 215.909 34.94 214.869 34.94C214.003 34.94 213.263 35.1133 212.649 35.46C212.049 35.7933 211.589 36.2533 211.269 36.84C210.963 37.4267 210.809 38.1067 210.809 38.88C210.809 39.6267 210.963 40.3 211.269 40.9C211.589 41.4867 212.049 41.9533 212.649 42.3C213.263 42.6333 214.003 42.8 214.869 42.8ZM229.504 45.26C228.477 45.26 227.604 45.0533 226.884 44.64C226.177 44.2133 225.63 43.6 225.244 42.8C224.87 42 224.684 41.04 224.684 39.92V33.74H226.524V39.62C226.524 40.9533 226.824 41.9667 227.424 42.66C228.024 43.34 228.897 43.68 230.044 43.68C230.857 43.68 231.564 43.5 232.164 43.14C232.764 42.7667 233.23 42.2467 233.564 41.58C233.897 40.9133 234.064 40.14 234.064 39.26L234.784 39.68C234.704 40.8133 234.424 41.8 233.944 42.64C233.477 43.48 232.864 44.1267 232.104 44.58C231.344 45.0333 230.477 45.26 229.504 45.26ZM234.684 45L234.064 41.16V33.74H235.904V41.44L236.524 45H234.684ZM239.004 29.6H240.844V45H239.004V29.6ZM254.528 45L254.128 40.74L254.628 39.36L254.128 38L254.528 33.74H256.408L255.888 39.36L256.408 45H254.528ZM255.248 39.36C254.955 40.5333 254.501 41.5667 253.888 42.46C253.288 43.34 252.555 44.0267 251.688 44.52C250.835 45.0133 249.888 45.26 248.848 45.26C247.741 45.26 246.761 45.0133 245.908 44.52C245.055 44.0133 244.381 43.32 243.888 42.44C243.408 41.5467 243.168 40.52 243.168 39.36C243.168 38.1867 243.408 37.16 243.888 36.28C244.381 35.4 245.055 34.7133 245.908 34.22C246.761 33.7267 247.741 33.48 248.848 33.48C249.888 33.48 250.835 33.7267 251.688 34.22C252.555 34.7133 253.295 35.4 253.908 36.28C254.521 37.16 254.968 38.1867 255.248 39.36ZM245.048 39.36C245.048 40.2133 245.221 40.9667 245.568 41.62C245.928 42.2733 246.415 42.7867 247.028 43.16C247.655 43.52 248.361 43.7 249.148 43.7C249.948 43.7 250.681 43.52 251.348 43.16C252.028 42.7867 252.628 42.2733 253.148 41.62C253.681 40.9667 254.115 40.2133 254.448 39.36C254.115 38.5067 253.681 37.7533 253.148 37.1C252.628 36.4467 252.028 35.94 251.348 35.58C250.681 35.2067 249.948 35.02 249.148 35.02C248.361 35.02 247.655 35.2067 247.028 35.58C246.415 35.94 245.928 36.4467 245.568 37.1C245.221 37.7533 245.048 38.5067 245.048 39.36ZM258.64 33.74H260.48L261.12 37.58V45H259.28V37.24L258.64 33.74ZM267.1 33.7V35.36C266.847 35.28 266.547 35.22 266.2 35.18C265.867 35.14 265.547 35.12 265.24 35.12C264.44 35.12 263.727 35.3 263.1 35.66C262.473 36.02 261.987 36.5467 261.64 37.24C261.293 37.92 261.12 38.7267 261.12 39.66L260.6 38.94C260.627 38.1533 260.753 37.4267 260.98 36.76C261.207 36.0933 261.527 35.52 261.94 35.04C262.367 34.5467 262.873 34.1667 263.46 33.9C264.06 33.62 264.733 33.48 265.48 33.48C265.76 33.48 266.047 33.5 266.34 33.54C266.647 33.58 266.9 33.6333 267.1 33.7ZM272.87 34.82H284.07V36.32H272.87V34.82ZM272.87 39.52H284.07V41.02H272.87V39.52ZM299.259 37.42H300.919V39.88C300.919 40.76 301.046 41.48 301.299 42.04C301.566 42.6 301.926 43.02 302.379 43.3C302.846 43.5667 303.366 43.7 303.939 43.7C304.593 43.7 305.173 43.56 305.679 43.28C306.186 42.9867 306.586 42.5467 306.879 41.96C307.173 41.36 307.319 40.6133 307.319 39.72C307.319 38.4 306.966 37.3333 306.259 36.52C305.553 35.7067 304.579 35.24 303.339 35.12V33.48C304.539 33.5733 305.573 33.9 306.439 34.46C307.306 35.0067 307.966 35.74 308.419 36.66C308.886 37.5667 309.119 38.6067 309.119 39.78C309.119 40.94 308.906 41.9333 308.479 42.76C308.053 43.5733 307.466 44.1933 306.719 44.62C305.986 45.0467 305.133 45.26 304.159 45.26C303.346 45.26 302.613 45.08 301.959 44.72C301.306 44.3467 300.793 43.7867 300.419 43.04C300.046 42.28 299.866 41.3333 299.879 40.2H300.299C300.313 41.3333 300.133 42.28 299.759 43.04C299.386 43.7867 298.873 44.3467 298.219 44.72C297.579 45.08 296.846 45.26 296.019 45.26C295.059 45.26 294.206 45.0467 293.459 44.62C292.713 44.1933 292.126 43.5733 291.699 42.76C291.273 41.9333 291.059 40.94 291.059 39.78C291.059 38.6067 291.286 37.5667 291.739 36.66C292.206 35.74 292.873 35.0067 293.739 34.46C294.606 33.9 295.639 33.5733 296.839 33.48V35.12C295.599 35.24 294.626 35.7067 293.919 36.52C293.213 37.3333 292.859 38.4 292.859 39.72C292.859 40.6133 293.006 41.36 293.299 41.96C293.593 42.5467 293.993 42.9867 294.499 43.28C295.019 43.56 295.599 43.7 296.239 43.7C296.813 43.7 297.326 43.5667 297.779 43.3C298.233 43.02 298.593 42.6 298.859 42.04C299.126 41.48 299.259 40.76 299.259 39.88V37.42ZM316.112 34.82H327.312V36.32H316.112V34.82ZM316.112 39.52H327.312V41.02H316.112V39.52Z" fill="#8AC926"/>
<path d="M444.511 23.22C444.378 24.4067 443.958 25.46 443.251 26.38C442.544 27.2867 441.618 27.9933 440.471 28.5C439.338 29.0067 438.038 29.26 436.571 29.26C434.918 29.26 433.464 28.9333 432.211 28.28C430.971 27.6267 430.004 26.72 429.311 25.56C428.618 24.3867 428.271 23.0333 428.271 21.5C428.271 19.9533 428.618 18.6 429.311 17.44C430.004 16.28 430.971 15.3733 432.211 14.72C433.464 14.0667 434.918 13.74 436.571 13.74C438.038 13.74 439.338 13.9933 440.471 14.5C441.618 15.0067 442.544 15.7133 443.251 16.62C443.958 17.5133 444.378 18.56 444.511 19.76H442.611C442.451 18.88 442.104 18.12 441.571 17.48C441.038 16.8267 440.344 16.3267 439.491 15.98C438.638 15.62 437.658 15.44 436.551 15.44C435.258 15.44 434.131 15.6867 433.171 16.18C432.224 16.6733 431.491 17.3733 430.971 18.28C430.451 19.1867 430.191 20.26 430.191 21.5C430.191 22.7267 430.451 23.7933 430.971 24.7C431.491 25.6067 432.224 26.3133 433.171 26.82C434.131 27.3133 435.258 27.56 436.551 27.56C437.658 27.56 438.638 27.3867 439.491 27.04C440.344 26.68 441.038 26.18 441.571 25.54C442.104 24.8867 442.451 24.1133 442.611 23.22H444.511ZM457.538 29L457.138 24.74L457.638 23.36L457.138 22L457.538 17.74H459.418L458.898 23.36L459.418 29H457.538ZM458.258 23.36C457.965 24.5333 457.511 25.5667 456.898 26.46C456.298 27.34 455.565 28.0267 454.698 28.52C453.845 29.0133 452.898 29.26 451.858 29.26C450.751 29.26 449.771 29.0133 448.918 28.52C448.065 28.0133 447.391 27.32 446.898 26.44C446.418 25.5467 446.178 24.52 446.178 23.36C446.178 22.1867 446.418 21.16 446.898 20.28C447.391 19.4 448.065 18.7133 448.918 18.22C449.771 17.7267 450.751 17.48 451.858 17.48C452.898 17.48 453.845 17.7267 454.698 18.22C455.565 18.7133 456.305 19.4 456.918 20.28C457.531 21.16 457.978 22.1867 458.258 23.36ZM448.058 23.36C448.058 24.2133 448.231 24.9667 448.578 25.62C448.938 26.2733 449.425 26.7867 450.038 27.16C450.665 27.52 451.371 27.7 452.158 27.7C452.958 27.7 453.691 27.52 454.358 27.16C455.038 26.7867 455.638 26.2733 456.158 25.62C456.691 24.9667 457.125 24.2133 457.458 23.36C457.125 22.5067 456.691 21.7533 456.158 21.1C455.638 20.4467 455.038 19.94 454.358 19.58C453.691 19.2067 452.958 19.02 452.158 19.02C451.371 19.02 450.665 19.2067 450.038 19.58C449.425 19.94 448.938 20.4467 448.578 21.1C448.231 21.7533 448.058 22.5067 448.058 23.36ZM461.65 17.74H463.49L464.13 21.56V29H462.29V21.3L461.65 17.74ZM468.43 17.48C469.403 17.48 470.23 17.6933 470.91 18.12C471.59 18.5333 472.11 19.14 472.47 19.94C472.83 20.7267 473.01 21.68 473.01 22.8V29H471.17V23.12C471.17 21.7733 470.89 20.76 470.33 20.08C469.77 19.3867 468.957 19.04 467.89 19.04C467.13 19.04 466.463 19.2267 465.89 19.6C465.33 19.9733 464.897 20.4933 464.59 21.16C464.283 21.8133 464.13 22.58 464.13 23.46L463.39 22.94C463.483 21.82 463.75 20.8533 464.19 20.04C464.643 19.2267 465.23 18.6 465.95 18.16C466.683 17.7067 467.51 17.48 468.43 17.48ZM477.29 17.48C478.263 17.48 479.09 17.6933 479.77 18.12C480.463 18.5333 480.99 19.14 481.35 19.94C481.71 20.7267 481.89 21.68 481.89 22.8V29H480.05V23.12C480.05 21.7733 479.77 20.76 479.21 20.08C478.65 19.3867 477.837 19.04 476.77 19.04C476.01 19.04 475.343 19.2267 474.77 19.6C474.21 19.9733 473.777 20.4933 473.47 21.16C473.163 21.8133 473.01 22.58 473.01 23.46L472.27 22.94C472.363 21.82 472.63 20.8533 473.07 20.04C473.523 19.2267 474.11 18.6 474.83 18.16C475.563 17.7067 476.383 17.48 477.29 17.48ZM484.709 13.6H486.549V21.92L486.209 22.5V24.2L486.549 24.98V29H484.709V13.6ZM485.649 23.36C485.942 22.1867 486.389 21.16 486.989 20.28C487.602 19.4 488.336 18.7133 489.189 18.22C490.056 17.7267 491.009 17.48 492.049 17.48C493.156 17.48 494.136 17.7267 494.989 18.22C495.842 18.7133 496.509 19.4 496.989 20.28C497.482 21.16 497.729 22.1867 497.729 23.36C497.729 24.52 497.482 25.5467 496.989 26.44C496.509 27.32 495.842 28.0133 494.989 28.52C494.136 29.0133 493.156 29.26 492.049 29.26C491.009 29.26 490.056 29.0133 489.189 28.52C488.336 28.0267 487.602 27.34 486.989 26.46C486.389 25.5667 485.942 24.5333 485.649 23.36ZM495.849 23.36C495.849 22.5067 495.669 21.7533 495.309 21.1C494.962 20.4467 494.476 19.94 493.849 19.58C493.236 19.2067 492.536 19.02 491.749 19.02C490.949 19.02 490.209 19.2067 489.529 19.58C488.862 19.94 488.269 20.4467 487.749 21.1C487.229 21.7533 486.796 22.5067 486.449 23.36C486.796 24.2133 487.229 24.9667 487.749 25.62C488.269 26.2733 488.862 26.7867 489.529 27.16C490.209 27.52 490.949 27.7 491.749 27.7C492.536 27.7 493.236 27.52 493.849 27.16C494.476 26.7867 494.962 26.2733 495.309 25.62C495.669 24.9667 495.849 24.2133 495.849 23.36ZM500.061 17.7L500.981 17.86L501.901 17.7V29H500.061V17.7ZM500.961 16.04C500.587 16.04 500.267 15.9267 500.001 15.7C499.747 15.46 499.621 15.16 499.621 14.8C499.621 14.4533 499.747 14.1667 500.001 13.94C500.267 13.7 500.587 13.58 500.961 13.58C501.361 13.58 501.687 13.7 501.941 13.94C502.194 14.1667 502.321 14.4533 502.321 14.8C502.321 15.16 502.194 15.46 501.941 15.7C501.687 15.9267 501.361 16.04 500.961 16.04ZM510.885 29.26C509.565 29.26 508.398 29.0133 507.385 28.52C506.385 28.0267 505.605 27.3333 505.045 26.44C504.485 25.5467 504.205 24.52 504.205 23.36C504.205 22.1867 504.485 21.16 505.045 20.28C505.605 19.4 506.385 18.7133 507.385 18.22C508.398 17.7267 509.565 17.48 510.885 17.48C512.218 17.48 513.385 17.7267 514.385 18.22C515.385 18.7133 516.165 19.4 516.725 20.28C517.298 21.16 517.585 22.1867 517.585 23.36C517.585 24.52 517.298 25.5467 516.725 26.44C516.165 27.3333 515.385 28.0267 514.385 28.52C513.385 29.0133 512.218 29.26 510.885 29.26ZM510.885 27.72C511.871 27.72 512.725 27.5467 513.445 27.2C514.165 26.84 514.718 26.3333 515.105 25.68C515.505 25.0267 515.705 24.2533 515.705 23.36C515.705 22.48 515.505 21.7133 515.105 21.06C514.718 20.4067 514.165 19.9 513.445 19.54C512.725 19.18 511.871 19 510.885 19C509.911 19 509.058 19.18 508.325 19.54C507.605 19.9 507.051 20.4067 506.665 21.06C506.278 21.7133 506.085 22.48 506.085 23.36C506.085 24.2533 506.278 25.0267 506.665 25.68C507.051 26.3333 507.605 26.84 508.325 27.2C509.058 27.5467 509.911 27.72 510.885 27.72ZM536.132 29L535.732 24.7L536.272 23.38L535.772 21.96L536.552 13.6H538.432L537.492 23.28L538.012 29H536.132ZM536.832 23.36C536.539 24.5333 536.085 25.5667 535.472 26.46C534.872 27.34 534.139 28.0267 533.272 28.52C532.419 29.0133 531.472 29.26 530.432 29.26C529.325 29.26 528.345 29.0133 527.492 28.52C526.639 28.0133 525.965 27.32 525.472 26.44C524.992 25.5467 524.752 24.52 524.752 23.36C524.752 22.1867 524.992 21.16 525.472 20.28C525.965 19.4 526.639 18.7133 527.492 18.22C528.345 17.7267 529.325 17.48 530.432 17.48C531.472 17.48 532.419 17.7267 533.272 18.22C534.139 18.7133 534.879 19.4 535.492 20.28C536.105 21.16 536.552 22.1867 536.832 23.36ZM526.632 23.36C526.632 24.2133 526.805 24.9667 527.152 25.62C527.512 26.2733 527.999 26.7867 528.612 27.16C529.239 27.52 529.945 27.7 530.732 27.7C531.532 27.7 532.265 27.52 532.932 27.16C533.612 26.7867 534.212 26.2733 534.732 25.62C535.265 24.9667 535.699 24.2133 536.032 23.36C535.699 22.5067 535.265 21.7533 534.732 21.1C534.212 20.4467 533.612 19.94 532.932 19.58C532.265 19.2067 531.532 19.02 530.732 19.02C529.945 19.02 529.239 19.2067 528.612 19.58C527.999 19.94 527.512 20.4467 527.152 21.1C526.805 21.7533 526.632 22.5067 526.632 23.36ZM546.684 29.26C545.391 29.26 544.244 29.0133 543.244 28.52C542.257 28.0133 541.477 27.32 540.904 26.44C540.344 25.5467 540.064 24.52 540.064 23.36C540.064 22.1867 540.331 21.16 540.864 20.28C541.397 19.4 542.137 18.7133 543.084 18.22C544.031 17.7267 545.117 17.48 546.344 17.48C547.557 17.48 548.617 17.7467 549.524 18.28C550.431 18.8133 551.131 19.5667 551.624 20.54C552.131 21.5 552.384 22.62 552.384 23.9H541.464V22.44H551.604L550.524 23.1C550.484 22.26 550.284 21.5333 549.924 20.92C549.564 20.3067 549.077 19.8333 548.464 19.5C547.851 19.1667 547.137 19 546.324 19C545.444 19 544.677 19.18 544.024 19.54C543.371 19.8867 542.857 20.38 542.484 21.02C542.124 21.66 541.944 22.4133 541.944 23.28C541.944 24.1867 542.151 24.9733 542.564 25.64C542.977 26.3067 543.557 26.82 544.304 27.18C545.051 27.54 545.931 27.72 546.944 27.72C547.864 27.72 548.764 27.5667 549.644 27.26C550.537 26.9533 551.337 26.5333 552.044 26V27.44C551.351 28 550.524 28.4467 549.564 28.78C548.604 29.1 547.644 29.26 546.684 29.26ZM560.197 13.6H562.037V29H560.197V13.6ZM571.021 29.26C569.701 29.26 568.535 29.0133 567.521 28.52C566.521 28.0267 565.741 27.3333 565.181 26.44C564.621 25.5467 564.341 24.52 564.341 23.36C564.341 22.1867 564.621 21.16 565.181 20.28C565.741 19.4 566.521 18.7133 567.521 18.22C568.535 17.7267 569.701 17.48 571.021 17.48C572.355 17.48 573.521 17.7267 574.521 18.22C575.521 18.7133 576.301 19.4 576.861 20.28C577.435 21.16 577.721 22.1867 577.721 23.36C577.721 24.52 577.435 25.5467 576.861 26.44C576.301 27.3333 575.521 28.0267 574.521 28.52C573.521 29.0133 572.355 29.26 571.021 29.26ZM571.021 27.72C572.008 27.72 572.861 27.5467 573.581 27.2C574.301 26.84 574.855 26.3333 575.241 25.68C575.641 25.0267 575.841 24.2533 575.841 23.36C575.841 22.48 575.641 21.7133 575.241 21.06C574.855 20.4067 574.301 19.9 573.581 19.54C572.861 19.18 572.008 19 571.021 19C570.048 19 569.195 19.18 568.461 19.54C567.741 19.9 567.188 20.4067 566.801 21.06C566.415 21.7133 566.221 22.48 566.221 23.36C566.221 24.2533 566.415 25.0267 566.801 25.68C567.188 26.3333 567.741 26.84 568.461 27.2C569.195 27.5467 570.048 27.72 571.021 27.72ZM579.501 17.74H581.341L581.981 21.56V29H580.141V21.3L579.501 17.74ZM586.641 17.48C587.695 17.48 588.588 17.6933 589.321 18.12C590.055 18.5333 590.615 19.14 591.001 19.94C591.388 20.7267 591.581 21.68 591.581 22.8V29H589.741V23.12C589.741 21.7733 589.428 20.76 588.801 20.08C588.188 19.3867 587.288 19.04 586.101 19.04C585.275 19.04 584.548 19.2267 583.921 19.6C583.308 19.9733 582.828 20.4933 582.481 21.16C582.148 21.8133 581.981 22.58 581.981 23.46L581.241 22.94C581.335 21.82 581.621 20.8533 582.101 20.04C582.581 19.2267 583.208 18.6 583.981 18.16C584.768 17.7067 585.655 17.48 586.641 17.48ZM604.876 26.26V24.24L604.956 23.94V22.08L604.876 21.68V17.74H606.716V26C606.716 27.4667 606.416 28.6867 605.816 29.66C605.23 30.6333 604.43 31.36 603.416 31.84C602.403 32.32 601.25 32.56 599.956 32.56C598.983 32.56 598.076 32.42 597.236 32.14C596.41 31.8733 595.616 31.46 594.856 30.9V29.28C595.656 29.9333 596.476 30.3867 597.316 30.64C598.17 30.8933 599.016 31.02 599.856 31.02C601.483 31.02 602.723 30.5933 603.576 29.74C604.443 28.9 604.876 27.74 604.876 26.26ZM599.156 28.28C598.143 28.28 597.223 28.0533 596.396 27.6C595.583 27.1467 594.936 26.52 594.456 25.72C593.976 24.9067 593.736 23.96 593.736 22.88C593.736 21.7867 593.976 20.84 594.456 20.04C594.936 19.2267 595.583 18.6 596.396 18.16C597.223 17.7067 598.143 17.48 599.156 17.48C599.916 17.48 600.623 17.6 601.276 17.84C601.93 18.0667 602.523 18.3733 603.056 18.76C603.59 19.1467 604.043 19.58 604.416 20.06C604.79 20.54 605.076 21.0267 605.276 21.52C605.49 22 605.596 22.4533 605.596 22.88C605.596 23.4267 605.436 24.0133 605.116 24.64C604.81 25.2533 604.363 25.84 603.776 26.4C603.203 26.9467 602.523 27.4 601.736 27.76C600.963 28.1067 600.103 28.28 599.156 28.28ZM599.656 26.8C600.696 26.8 601.656 26.4933 602.536 25.88C603.416 25.2667 604.223 24.2667 604.956 22.88C604.236 21.4667 603.43 20.46 602.536 19.86C601.656 19.2467 600.696 18.94 599.656 18.94C598.79 18.94 598.05 19.1133 597.436 19.46C596.836 19.7933 596.376 20.2533 596.056 20.84C595.75 21.4267 595.596 22.1067 595.596 22.88C595.596 23.6267 595.75 24.3 596.056 24.9C596.376 25.4867 596.836 25.9533 597.436 26.3C598.05 26.6333 598.79 26.8 599.656 26.8ZM609.631 17.7L610.551 17.86L611.471 17.7V29H609.631V17.7ZM610.531 16.04C610.158 16.04 609.838 15.9267 609.571 15.7C609.318 15.46 609.191 15.16 609.191 14.8C609.191 14.4533 609.318 14.1667 609.571 13.94C609.838 13.7 610.158 13.58 610.531 13.58C610.931 13.58 611.258 13.7 611.511 13.94C611.764 14.1667 611.891 14.4533 611.891 14.8C611.891 15.16 611.764 15.46 611.511 15.7C611.258 15.9267 610.931 16.04 610.531 16.04ZM613.035 19.22V18.34L615.515 17.88L616.255 14.82H617.355V17.74H622.835V19.22H617.355V24.94C617.355 25.9533 617.575 26.6667 618.015 27.08C618.468 27.48 619.162 27.68 620.095 27.68C620.708 27.68 621.242 27.6067 621.695 27.46C622.162 27.3133 622.615 27.1 623.055 26.82V28.44C622.735 28.64 622.262 28.8267 621.635 29C621.022 29.1733 620.382 29.26 619.715 29.26C618.702 29.26 617.882 29.0867 617.255 28.74C616.642 28.38 616.195 27.9 615.915 27.3C615.648 26.6867 615.515 25.9933 615.515 25.22V19.22H613.035ZM629.701 29.26C628.674 29.26 627.801 29.0533 627.081 28.64C626.374 28.2133 625.828 27.6 625.441 26.8C625.068 26 624.881 25.04 624.881 23.92V17.74H626.721V23.62C626.721 24.9533 627.021 25.9667 627.621 26.66C628.221 27.34 629.094 27.68 630.241 27.68C631.054 27.68 631.761 27.5 632.361 27.14C632.961 26.7667 633.428 26.2467 633.761 25.58C634.094 24.9133 634.261 24.14 634.261 23.26L634.981 23.68C634.901 24.8133 634.621 25.8 634.141 26.64C633.674 27.48 633.061 28.1267 632.301 28.58C631.541 29.0333 630.674 29.26 629.701 29.26ZM634.881 29L634.261 25.16V17.74H636.101V25.44L636.721 29H634.881ZM649.921 29L649.521 24.7L650.061 23.38L649.561 21.96L650.341 13.6H652.221L651.281 23.28L651.801 29H649.921ZM650.621 23.36C650.328 24.5333 649.875 25.5667 649.261 26.46C648.661 27.34 647.928 28.0267 647.061 28.52C646.208 29.0133 645.261 29.26 644.221 29.26C643.115 29.26 642.135 29.0133 641.281 28.52C640.428 28.0133 639.755 27.32 639.261 26.44C638.781 25.5467 638.541 24.52 638.541 23.36C638.541 22.1867 638.781 21.16 639.261 20.28C639.755 19.4 640.428 18.7133 641.281 18.22C642.135 17.7267 643.115 17.48 644.221 17.48C645.261 17.48 646.208 17.7267 647.061 18.22C647.928 18.7133 648.668 19.4 649.281 20.28C649.895 21.16 650.341 22.1867 650.621 23.36ZM640.421 23.36C640.421 24.2133 640.595 24.9667 640.941 25.62C641.301 26.2733 641.788 26.7867 642.401 27.16C643.028 27.52 643.735 27.7 644.521 27.7C645.321 27.7 646.055 27.52 646.721 27.16C647.401 26.7867 648.001 26.2733 648.521 25.62C649.055 24.9667 649.488 24.2133 649.821 23.36C649.488 22.5067 649.055 21.7533 648.521 21.1C648.001 20.4467 647.401 19.94 646.721 19.58C646.055 19.2067 645.321 19.02 644.521 19.02C643.735 19.02 643.028 19.2067 642.401 19.58C641.788 19.94 641.301 20.4467 640.941 21.1C640.595 21.7533 640.421 22.5067 640.421 23.36ZM666.001 29.26C664.707 29.26 663.561 29.0133 662.561 28.52C661.574 28.0133 660.794 27.32 660.221 26.44C659.661 25.5467 659.381 24.52 659.381 23.36C659.381 22.1867 659.647 21.16 660.181 20.28C660.714 19.4 661.454 18.7133 662.401 18.22C663.347 17.7267 664.434 17.48 665.661 17.48C666.874 17.48 667.934 17.7467 668.841 18.28C669.747 18.8133 670.447 19.5667 670.941 20.54C671.447 21.5 671.701 22.62 671.701 23.9H660.781V22.44H670.921L669.841 23.1C669.801 22.26 669.601 21.5333 669.241 20.92C668.881 20.3067 668.394 19.8333 667.781 19.5C667.167 19.1667 666.454 19 665.641 19C664.761 19 663.994 19.18 663.341 19.54C662.687 19.8867 662.174 20.38 661.801 21.02C661.441 21.66 661.261 22.4133 661.261 23.28C661.261 24.1867 661.467 24.9733 661.881 25.64C662.294 26.3067 662.874 26.82 663.621 27.18C664.367 27.54 665.247 27.72 666.261 27.72C667.181 27.72 668.081 27.5667 668.961 27.26C669.854 26.9533 670.654 26.5333 671.361 26V27.44C670.667 28 669.841 28.4467 668.881 28.78C667.921 29.1 666.961 29.26 666.001 29.26ZM673.466 17.74H675.306L675.946 21.56V29H674.106V21.3L673.466 17.74ZM680.606 17.48C681.66 17.48 682.553 17.6933 683.286 18.12C684.02 18.5333 684.58 19.14 684.966 19.94C685.353 20.7267 685.546 21.68 685.546 22.8V29H683.706V23.12C683.706 21.7733 683.393 20.76 682.766 20.08C682.153 19.3867 681.253 19.04 680.066 19.04C679.24 19.04 678.513 19.2267 677.886 19.6C677.273 19.9733 676.793 20.4933 676.446 21.16C676.113 21.8133 675.946 22.58 675.946 23.46L675.206 22.94C675.3 21.82 675.586 20.8533 676.066 20.04C676.546 19.2267 677.173 18.6 677.946 18.16C678.733 17.7067 679.62 17.48 680.606 17.48ZM704.369 26.26V24.24L704.449 23.94V22.08L704.369 21.68V17.74H706.209V26C706.209 27.4667 705.909 28.6867 705.309 29.66C704.722 30.6333 703.922 31.36 702.909 31.84C701.895 32.32 700.742 32.56 699.449 32.56C698.475 32.56 697.569 32.42 696.729 32.14C695.902 31.8733 695.109 31.46 694.349 30.9V29.28C695.149 29.9333 695.969 30.3867 696.809 30.64C697.662 30.8933 698.509 31.02 699.349 31.02C700.975 31.02 702.215 30.5933 703.069 29.74C703.935 28.9 704.369 27.74 704.369 26.26ZM698.649 28.28C697.635 28.28 696.715 28.0533 695.889 27.6C695.075 27.1467 694.429 26.52 693.949 25.72C693.469 24.9067 693.229 23.96 693.229 22.88C693.229 21.7867 693.469 20.84 693.949 20.04C694.429 19.2267 695.075 18.6 695.889 18.16C696.715 17.7067 697.635 17.48 698.649 17.48C699.409 17.48 700.115 17.6 700.769 17.84C701.422 18.0667 702.015 18.3733 702.549 18.76C703.082 19.1467 703.535 19.58 703.909 20.06C704.282 20.54 704.569 21.0267 704.769 21.52C704.982 22 705.089 22.4533 705.089 22.88C705.089 23.4267 704.929 24.0133 704.609 24.64C704.302 25.2533 703.855 25.84 703.269 26.4C702.695 26.9467 702.015 27.4 701.229 27.76C700.455 28.1067 699.595 28.28 698.649 28.28ZM699.149 26.8C700.189 26.8 701.149 26.4933 702.029 25.88C702.909 25.2667 703.715 24.2667 704.449 22.88C703.729 21.4667 702.922 20.46 702.029 19.86C701.149 19.2467 700.189 18.94 699.149 18.94C698.282 18.94 697.542 19.1133 696.929 19.46C696.329 19.7933 695.869 20.2533 695.549 20.84C695.242 21.4267 695.089 22.1067 695.089 22.88C695.089 23.6267 695.242 24.3 695.549 24.9C695.869 25.4867 696.329 25.9533 696.929 26.3C697.542 26.6333 698.282 26.8 699.149 26.8ZM708.603 17.74H710.443L711.083 21.58V29H709.243V21.24L708.603 17.74ZM717.063 17.7V19.36C716.81 19.28 716.51 19.22 716.163 19.18C715.83 19.14 715.51 19.12 715.203 19.12C714.403 19.12 713.69 19.3 713.063 19.66C712.436 20.02 711.95 20.5467 711.603 21.24C711.256 21.92 711.083 22.7267 711.083 23.66L710.563 22.94C710.59 22.1533 710.716 21.4267 710.943 20.76C711.17 20.0933 711.49 19.52 711.903 19.04C712.33 18.5467 712.836 18.1667 713.423 17.9C714.023 17.62 714.696 17.48 715.443 17.48C715.723 17.48 716.01 17.5 716.303 17.54C716.61 17.58 716.863 17.6333 717.063 17.7ZM728.964 29L728.564 24.74L729.064 23.36L728.564 22L728.964 17.74H730.844L730.324 23.36L730.844 29H728.964ZM729.684 23.36C729.39 24.5333 728.937 25.5667 728.324 26.46C727.724 27.34 726.99 28.0267 726.124 28.52C725.27 29.0133 724.324 29.26 723.284 29.26C722.177 29.26 721.197 29.0133 720.344 28.52C719.49 28.0133 718.817 27.32 718.324 26.44C717.844 25.5467 717.604 24.52 717.604 23.36C717.604 22.1867 717.844 21.16 718.324 20.28C718.817 19.4 719.49 18.7133 720.344 18.22C721.197 17.7267 722.177 17.48 723.284 17.48C724.324 17.48 725.27 17.7267 726.124 18.22C726.99 18.7133 727.73 19.4 728.344 20.28C728.957 21.16 729.404 22.1867 729.684 23.36ZM719.484 23.36C719.484 24.2133 719.657 24.9667 720.004 25.62C720.364 26.2733 720.85 26.7867 721.464 27.16C722.09 27.52 722.797 27.7 723.584 27.7C724.384 27.7 725.117 27.52 725.784 27.16C726.464 26.7867 727.064 26.2733 727.584 25.62C728.117 24.9667 728.55 24.2133 728.884 23.36C728.55 22.5067 728.117 21.7533 727.584 21.1C727.064 20.4467 726.464 19.94 725.784 19.58C725.117 19.2067 724.384 19.02 723.584 19.02C722.797 19.02 722.09 19.2067 721.464 19.58C720.85 19.94 720.364 20.4467 720.004 21.1C719.657 21.7533 719.484 22.5067 719.484 23.36ZM744.316 29L743.916 24.7L744.456 23.38L743.956 21.96L744.736 13.6H746.616L745.676 23.28L746.196 29H744.316ZM745.016 23.36C744.722 24.5333 744.269 25.5667 743.656 26.46C743.056 27.34 742.322 28.0267 741.456 28.52C740.602 29.0133 739.656 29.26 738.616 29.26C737.509 29.26 736.529 29.0133 735.676 28.52C734.822 28.0133 734.149 27.32 733.656 26.44C733.176 25.5467 732.936 24.52 732.936 23.36C732.936 22.1867 733.176 21.16 733.656 20.28C734.149 19.4 734.822 18.7133 735.676 18.22C736.529 17.7267 737.509 17.48 738.616 17.48C739.656 17.48 740.602 17.7267 741.456 18.22C742.322 18.7133 743.062 19.4 743.676 20.28C744.289 21.16 744.736 22.1867 745.016 23.36ZM734.816 23.36C734.816 24.2133 734.989 24.9667 735.336 25.62C735.696 26.2733 736.182 26.7867 736.796 27.16C737.422 27.52 738.129 27.7 738.916 27.7C739.716 27.7 740.449 27.52 741.116 27.16C741.796 26.7867 742.396 26.2733 742.916 25.62C743.449 24.9667 743.882 24.2133 744.216 23.36C743.882 22.5067 743.449 21.7533 742.916 21.1C742.396 20.4467 741.796 19.94 741.116 19.58C740.449 19.2067 739.716 19.02 738.916 19.02C738.129 19.02 737.422 19.2067 736.796 19.58C736.182 19.94 735.696 20.4467 735.336 21.1C734.989 21.7533 734.816 22.5067 734.816 23.36ZM754.928 29.26C753.608 29.26 752.441 29.0133 751.428 28.52C750.428 28.0267 749.648 27.3333 749.088 26.44C748.528 25.5467 748.248 24.52 748.248 23.36C748.248 22.1867 748.528 21.16 749.088 20.28C749.648 19.4 750.428 18.7133 751.428 18.22C752.441 17.7267 753.608 17.48 754.928 17.48C756.261 17.48 757.428 17.7267 758.428 18.22C759.428 18.7133 760.208 19.4 760.768 20.28C761.341 21.16 761.628 22.1867 761.628 23.36C761.628 24.52 761.341 25.5467 760.768 26.44C760.208 27.3333 759.428 28.0267 758.428 28.52C757.428 29.0133 756.261 29.26 754.928 29.26ZM754.928 27.72C755.914 27.72 756.768 27.5467 757.488 27.2C758.208 26.84 758.761 26.3333 759.148 25.68C759.548 25.0267 759.748 24.2533 759.748 23.36C759.748 22.48 759.548 21.7133 759.148 21.06C758.761 20.4067 758.208 19.9 757.488 19.54C756.768 19.18 755.914 19 754.928 19C753.954 19 753.101 19.18 752.368 19.54C751.648 19.9 751.094 20.4067 750.708 21.06C750.321 21.7133 750.128 22.48 750.128 23.36C750.128 24.2533 750.321 25.0267 750.708 25.68C751.094 26.3333 751.648 26.84 752.368 27.2C753.101 27.5467 753.954 27.72 754.928 27.72ZM774.908 25.7C774.908 26.42 774.688 27.0467 774.248 27.58C773.821 28.1133 773.188 28.5267 772.348 28.82C771.521 29.1133 770.514 29.26 769.328 29.26C768.114 29.26 767.041 29.0933 766.108 28.76C765.188 28.4133 764.468 27.9333 763.948 27.32C763.428 26.7067 763.148 25.9933 763.108 25.18H764.988C765.068 25.7 765.301 26.16 765.688 26.56C766.074 26.9467 766.581 27.2467 767.208 27.46C767.834 27.6733 768.548 27.78 769.348 27.78C770.508 27.78 771.414 27.6067 772.068 27.26C772.734 26.9 773.068 26.4133 773.068 25.8C773.068 25.32 772.854 24.9667 772.428 24.74C772.001 24.5 771.208 24.32 770.048 24.2L767.868 23.98C766.788 23.8733 765.921 23.68 765.268 23.4C764.628 23.1067 764.168 22.7467 763.888 22.32C763.608 21.88 763.468 21.3933 763.468 20.86C763.468 20.1267 763.688 19.5133 764.128 19.02C764.581 18.5133 765.208 18.1333 766.008 17.88C766.808 17.6133 767.734 17.48 768.788 17.48C769.908 17.48 770.901 17.64 771.768 17.96C772.648 18.28 773.348 18.7267 773.868 19.3C774.388 19.8733 774.674 20.5333 774.728 21.28H772.868C772.801 20.8533 772.601 20.4667 772.268 20.12C771.934 19.76 771.468 19.4733 770.868 19.26C770.281 19.0467 769.554 18.94 768.688 18.94C767.621 18.94 766.788 19.0933 766.188 19.4C765.601 19.7067 765.308 20.1533 765.308 20.74C765.308 21.1667 765.501 21.5067 765.888 21.76C766.274 22.0133 766.961 22.1933 767.948 22.3L770.428 22.56C771.561 22.6667 772.454 22.8533 773.108 23.12C773.761 23.3867 774.221 23.7333 774.488 24.16C774.768 24.5867 774.908 25.1 774.908 25.7Z" fill="#8AC926"/>
<path d="M431.549 57.06L430.629 57.12V43H432.449V58H430.029L418.609 43.88L419.529 43.82V58H417.709V43H420.149L431.549 57.06ZM440.271 58.26C439.245 58.26 438.371 58.0533 437.651 57.64C436.945 57.2133 436.398 56.6 436.011 55.8C435.638 55 435.451 54.04 435.451 52.92V46.74H437.291V52.62C437.291 53.9533 437.591 54.9667 438.191 55.66C438.791 56.34 439.665 56.68 440.811 56.68C441.625 56.68 442.331 56.5 442.931 56.14C443.531 55.7667 443.998 55.2467 444.331 54.58C444.665 53.9133 444.831 53.14 444.831 52.26L445.551 52.68C445.471 53.8133 445.191 54.8 444.711 55.64C444.245 56.48 443.631 57.1267 442.871 57.58C442.111 58.0333 441.245 58.26 440.271 58.26ZM445.451 58L444.831 54.16V46.74H446.671V54.44L447.291 58H445.451ZM442.271 42.18H444.191L441.731 45.46H439.891L442.271 42.18ZM449.251 46.74H451.091L451.731 50.56V58H449.891V50.3L449.251 46.74ZM456.031 46.48C457.005 46.48 457.831 46.6933 458.511 47.12C459.191 47.5333 459.711 48.14 460.071 48.94C460.431 49.7267 460.611 50.68 460.611 51.8V58H458.771V52.12C458.771 50.7733 458.491 49.76 457.931 49.08C457.371 48.3867 456.558 48.04 455.491 48.04C454.731 48.04 454.065 48.2267 453.491 48.6C452.931 48.9733 452.498 49.4933 452.191 50.16C451.885 50.8133 451.731 51.58 451.731 52.46L450.991 51.94C451.085 50.82 451.351 49.8533 451.791 49.04C452.245 48.2267 452.831 47.6 453.551 47.16C454.285 46.7067 455.111 46.48 456.031 46.48ZM464.891 46.48C465.865 46.48 466.691 46.6933 467.371 47.12C468.065 47.5333 468.591 48.14 468.951 48.94C469.311 49.7267 469.491 50.68 469.491 51.8V58H467.651V52.12C467.651 50.7733 467.371 49.76 466.811 49.08C466.251 48.3867 465.438 48.04 464.371 48.04C463.611 48.04 462.945 48.2267 462.371 48.6C461.811 48.9733 461.378 49.4933 461.071 50.16C460.765 50.8133 460.611 51.58 460.611 52.46L459.871 51.94C459.965 50.82 460.231 49.8533 460.671 49.04C461.125 48.2267 461.711 47.6 462.431 47.16C463.165 46.7067 463.985 46.48 464.891 46.48ZM478.251 58.26C476.957 58.26 475.811 58.0133 474.811 57.52C473.824 57.0133 473.044 56.32 472.471 55.44C471.911 54.5467 471.631 53.52 471.631 52.36C471.631 51.1867 471.897 50.16 472.431 49.28C472.964 48.4 473.704 47.7133 474.651 47.22C475.597 46.7267 476.684 46.48 477.911 46.48C479.124 46.48 480.184 46.7467 481.091 47.28C481.997 47.8133 482.697 48.5667 483.191 49.54C483.697 50.5 483.951 51.62 483.951 52.9H473.031V51.44H483.171L482.091 52.1C482.051 51.26 481.851 50.5333 481.491 49.92C481.131 49.3067 480.644 48.8333 480.031 48.5C479.417 48.1667 478.704 48 477.891 48C477.011 48 476.244 48.18 475.591 48.54C474.937 48.8867 474.424 49.38 474.051 50.02C473.691 50.66 473.511 51.4133 473.511 52.28C473.511 53.1867 473.717 53.9733 474.131 54.64C474.544 55.3067 475.124 55.82 475.871 56.18C476.617 56.54 477.497 56.72 478.511 56.72C479.431 56.72 480.331 56.5667 481.211 56.26C482.104 55.9533 482.904 55.5333 483.611 55V56.44C482.917 57 482.091 57.4467 481.131 57.78C480.171 58.1 479.211 58.26 478.251 58.26ZM485.716 46.74H487.556L488.196 50.58V58H486.356V50.24L485.716 46.74ZM494.176 46.7V48.36C493.923 48.28 493.623 48.22 493.276 48.18C492.943 48.14 492.623 48.12 492.316 48.12C491.516 48.12 490.803 48.3 490.176 48.66C489.55 49.02 489.063 49.5467 488.716 50.24C488.37 50.92 488.196 51.7267 488.196 52.66L487.676 51.94C487.703 51.1533 487.83 50.4267 488.056 49.76C488.283 49.0933 488.603 48.52 489.016 48.04C489.443 47.5467 489.95 47.1667 490.536 46.9C491.136 46.62 491.81 46.48 492.556 46.48C492.836 46.48 493.123 46.5 493.416 46.54C493.723 46.58 493.976 46.6333 494.176 46.7ZM501.318 58.26C499.998 58.26 498.832 58.0133 497.818 57.52C496.818 57.0267 496.038 56.3333 495.478 55.44C494.918 54.5467 494.638 53.52 494.638 52.36C494.638 51.1867 494.918 50.16 495.478 49.28C496.038 48.4 496.818 47.7133 497.818 47.22C498.832 46.7267 499.998 46.48 501.318 46.48C502.652 46.48 503.818 46.7267 504.818 47.22C505.818 47.7133 506.598 48.4 507.158 49.28C507.732 50.16 508.018 51.1867 508.018 52.36C508.018 53.52 507.732 54.5467 507.158 55.44C506.598 56.3333 505.818 57.0267 504.818 57.52C503.818 58.0133 502.652 58.26 501.318 58.26ZM501.318 56.72C502.305 56.72 503.158 56.5467 503.878 56.2C504.598 55.84 505.152 55.3333 505.538 54.68C505.938 54.0267 506.138 53.2533 506.138 52.36C506.138 51.48 505.938 50.7133 505.538 50.06C505.152 49.4067 504.598 48.9 503.878 48.54C503.158 48.18 502.305 48 501.318 48C500.345 48 499.492 48.18 498.758 48.54C498.038 48.9 497.485 49.4067 497.098 50.06C496.712 50.7133 496.518 51.48 496.518 52.36C496.518 53.2533 496.712 54.0267 497.098 54.68C497.485 55.3333 498.038 55.84 498.758 56.2C499.492 56.5467 500.345 56.72 501.318 56.72ZM526.566 58L526.166 53.7L526.706 52.38L526.206 50.96L526.986 42.6H528.866L527.926 52.28L528.446 58H526.566ZM527.266 52.36C526.972 53.5333 526.519 54.5667 525.906 55.46C525.306 56.34 524.572 57.0267 523.706 57.52C522.852 58.0133 521.906 58.26 520.866 58.26C519.759 58.26 518.779 58.0133 517.926 57.52C517.072 57.0133 516.399 56.32 515.906 55.44C515.426 54.5467 515.186 53.52 515.186 52.36C515.186 51.1867 515.426 50.16 515.906 49.28C516.399 48.4 517.072 47.7133 517.926 47.22C518.779 46.7267 519.759 46.48 520.866 46.48C521.906 46.48 522.852 46.7267 523.706 47.22C524.572 47.7133 525.312 48.4 525.926 49.28C526.539 50.16 526.986 51.1867 527.266 52.36ZM517.066 52.36C517.066 53.2133 517.239 53.9667 517.586 54.62C517.946 55.2733 518.432 55.7867 519.046 56.16C519.672 56.52 520.379 56.7 521.166 56.7C521.966 56.7 522.699 56.52 523.366 56.16C524.046 55.7867 524.646 55.2733 525.166 54.62C525.699 53.9667 526.132 53.2133 526.466 52.36C526.132 51.5067 525.699 50.7533 525.166 50.1C524.646 49.4467 524.046 48.94 523.366 48.58C522.699 48.2067 521.966 48.02 521.166 48.02C520.379 48.02 519.672 48.2067 519.046 48.58C518.432 48.94 517.946 49.4467 517.586 50.1C517.239 50.7533 517.066 51.5067 517.066 52.36ZM537.118 58.26C535.824 58.26 534.678 58.0133 533.678 57.52C532.691 57.0133 531.911 56.32 531.338 55.44C530.778 54.5467 530.498 53.52 530.498 52.36C530.498 51.1867 530.764 50.16 531.298 49.28C531.831 48.4 532.571 47.7133 533.518 47.22C534.464 46.7267 535.551 46.48 536.778 46.48C537.991 46.48 539.051 46.7467 539.958 47.28C540.864 47.8133 541.564 48.5667 542.058 49.54C542.564 50.5 542.818 51.62 542.818 52.9H531.898V51.44H542.038L540.958 52.1C540.918 51.26 540.718 50.5333 540.358 49.92C539.998 49.3067 539.511 48.8333 538.898 48.5C538.284 48.1667 537.571 48 536.758 48C535.878 48 535.111 48.18 534.458 48.54C533.804 48.8867 533.291 49.38 532.918 50.02C532.558 50.66 532.378 51.4133 532.378 52.28C532.378 53.1867 532.584 53.9733 532.998 54.64C533.411 55.3067 533.991 55.82 534.738 56.18C535.484 56.54 536.364 56.72 537.378 56.72C538.298 56.72 539.198 56.5667 540.078 56.26C540.971 55.9533 541.771 55.5333 542.478 55V56.44C541.784 57 540.958 57.4467 539.998 57.78C539.038 58.1 538.078 58.26 537.118 58.26ZM561.351 58L560.951 53.7L561.491 52.38L560.991 50.96L561.771 42.6H563.651L562.711 52.28L563.231 58H561.351ZM562.051 52.36C561.758 53.5333 561.304 54.5667 560.691 55.46C560.091 56.34 559.358 57.0267 558.491 57.52C557.638 58.0133 556.691 58.26 555.651 58.26C554.544 58.26 553.564 58.0133 552.711 57.52C551.858 57.0133 551.184 56.32 550.691 55.44C550.211 54.5467 549.971 53.52 549.971 52.36C549.971 51.1867 550.211 50.16 550.691 49.28C551.184 48.4 551.858 47.7133 552.711 47.22C553.564 46.7267 554.544 46.48 555.651 46.48C556.691 46.48 557.638 46.7267 558.491 47.22C559.358 47.7133 560.098 48.4 560.711 49.28C561.324 50.16 561.771 51.1867 562.051 52.36ZM551.851 52.36C551.851 53.2133 552.024 53.9667 552.371 54.62C552.731 55.2733 553.218 55.7867 553.831 56.16C554.458 56.52 555.164 56.7 555.951 56.7C556.751 56.7 557.484 56.52 558.151 56.16C558.831 55.7867 559.431 55.2733 559.951 54.62C560.484 53.9667 560.918 53.2133 561.251 52.36C560.918 51.5067 560.484 50.7533 559.951 50.1C559.431 49.4467 558.831 48.94 558.151 48.58C557.484 48.2067 556.751 48.02 555.951 48.02C555.164 48.02 554.458 48.2067 553.831 48.58C553.218 48.94 552.731 49.4467 552.371 50.1C552.024 50.7533 551.851 51.5067 551.851 52.36ZM565.963 46.7L566.883 46.86L567.803 46.7V58H565.963V46.7ZM568.063 42.18H569.983L567.523 45.46H565.683L568.063 42.18ZM581.487 58L581.087 53.74L581.587 52.36L581.087 51L581.487 46.74H583.367L582.847 52.36L583.367 58H581.487ZM582.207 52.36C581.914 53.5333 581.46 54.5667 580.847 55.46C580.247 56.34 579.514 57.0267 578.647 57.52C577.794 58.0133 576.847 58.26 575.807 58.26C574.7 58.26 573.72 58.0133 572.867 57.52C572.014 57.0133 571.34 56.32 570.847 55.44C570.367 54.5467 570.127 53.52 570.127 52.36C570.127 51.1867 570.367 50.16 570.847 49.28C571.34 48.4 572.014 47.7133 572.867 47.22C573.72 46.7267 574.7 46.48 575.807 46.48C576.847 46.48 577.794 46.7267 578.647 47.22C579.514 47.7133 580.254 48.4 580.867 49.28C581.48 50.16 581.927 51.1867 582.207 52.36ZM572.007 52.36C572.007 53.2133 572.18 53.9667 572.527 54.62C572.887 55.2733 573.374 55.7867 573.987 56.16C574.614 56.52 575.32 56.7 576.107 56.7C576.907 56.7 577.64 56.52 578.307 56.16C578.987 55.7867 579.587 55.2733 580.107 54.62C580.64 53.9667 581.074 53.2133 581.407 52.36C581.074 51.5067 580.64 50.7533 580.107 50.1C579.587 49.4467 578.987 48.94 578.307 48.58C577.64 48.2067 576.907 48.02 576.107 48.02C575.32 48.02 574.614 48.2067 573.987 48.58C573.374 48.94 572.887 49.4467 572.527 50.1C572.18 50.7533 572.007 51.5067 572.007 52.36ZM597.099 54.7C597.099 55.42 596.879 56.0467 596.439 56.58C596.012 57.1133 595.379 57.5267 594.539 57.82C593.712 58.1133 592.706 58.26 591.519 58.26C590.306 58.26 589.232 58.0933 588.299 57.76C587.379 57.4133 586.659 56.9333 586.139 56.32C585.619 55.7067 585.339 54.9933 585.299 54.18H587.179C587.259 54.7 587.492 55.16 587.879 55.56C588.266 55.9467 588.772 56.2467 589.399 56.46C590.026 56.6733 590.739 56.78 591.539 56.78C592.699 56.78 593.606 56.6067 594.259 56.26C594.926 55.9 595.259 55.4133 595.259 54.8C595.259 54.32 595.046 53.9667 594.619 53.74C594.192 53.5 593.399 53.32 592.239 53.2L590.059 52.98C588.979 52.8733 588.112 52.68 587.459 52.4C586.819 52.1067 586.359 51.7467 586.079 51.32C585.799 50.88 585.659 50.3933 585.659 49.86C585.659 49.1267 585.879 48.5133 586.319 48.02C586.772 47.5133 587.399 47.1333 588.199 46.88C588.999 46.6133 589.926 46.48 590.979 46.48C592.099 46.48 593.092 46.64 593.959 46.96C594.839 47.28 595.539 47.7267 596.059 48.3C596.579 48.8733 596.866 49.5333 596.919 50.28H595.059C594.992 49.8533 594.792 49.4667 594.459 49.12C594.126 48.76 593.659 48.4733 593.059 48.26C592.472 48.0467 591.746 47.94 590.879 47.94C589.812 47.94 588.979 48.0933 588.379 48.4C587.792 48.7067 587.499 49.1533 587.499 49.74C587.499 50.1667 587.692 50.5067 588.079 50.76C588.466 51.0133 589.152 51.1933 590.139 51.3L592.619 51.56C593.752 51.6667 594.646 51.8533 595.299 52.12C595.952 52.3867 596.412 52.7333 596.679 53.16C596.959 53.5867 597.099 54.1 597.099 54.7ZM610.868 58.26C609.574 58.26 608.428 58.0133 607.428 57.52C606.441 57.0133 605.661 56.32 605.088 55.44C604.528 54.5467 604.248 53.52 604.248 52.36C604.248 51.1867 604.514 50.16 605.048 49.28C605.581 48.4 606.321 47.7133 607.268 47.22C608.214 46.7267 609.301 46.48 610.528 46.48C611.741 46.48 612.801 46.7467 613.708 47.28C614.614 47.8133 615.314 48.5667 615.808 49.54C616.314 50.5 616.568 51.62 616.568 52.9H605.648V51.44H615.788L614.708 52.1C614.668 51.26 614.468 50.5333 614.108 49.92C613.748 49.3067 613.261 48.8333 612.648 48.5C612.034 48.1667 611.321 48 610.508 48C609.628 48 608.861 48.18 608.208 48.54C607.554 48.8867 607.041 49.38 606.668 50.02C606.308 50.66 606.128 51.4133 606.128 52.28C606.128 53.1867 606.334 53.9733 606.748 54.64C607.161 55.3067 607.741 55.82 608.488 56.18C609.234 56.54 610.114 56.72 611.128 56.72C612.048 56.72 612.948 56.5667 613.828 56.26C614.721 55.9533 615.521 55.5333 616.228 55V56.44C615.534 57 614.708 57.4467 613.748 57.78C612.788 58.1 611.828 58.26 610.868 58.26ZM618.334 46.74H620.174L620.814 50.56V58H618.974V50.3L618.334 46.74ZM625.474 46.48C626.527 46.48 627.42 46.6933 628.154 47.12C628.887 47.5333 629.447 48.14 629.834 48.94C630.22 49.7267 630.414 50.68 630.414 51.8V58H628.574V52.12C628.574 50.7733 628.26 49.76 627.634 49.08C627.02 48.3867 626.12 48.04 624.934 48.04C624.107 48.04 623.38 48.2267 622.754 48.6C622.14 48.9733 621.66 49.4933 621.314 50.16C620.98 50.8133 620.814 51.58 620.814 52.46L620.074 51.94C620.167 50.82 620.454 49.8533 620.934 49.04C621.414 48.2267 622.04 47.6 622.814 47.16C623.6 46.7067 624.487 46.48 625.474 46.48ZM631.633 48.22V47.34L634.113 46.88L634.853 43.82H635.953V46.74H641.433V48.22H635.953V53.94C635.953 54.9533 636.173 55.6667 636.613 56.08C637.066 56.48 637.759 56.68 638.693 56.68C639.306 56.68 639.839 56.6067 640.293 56.46C640.759 56.3133 641.213 56.1 641.653 55.82V57.44C641.333 57.64 640.859 57.8267 640.233 58C639.619 58.1733 638.979 58.26 638.313 58.26C637.299 58.26 636.479 58.0867 635.853 57.74C635.239 57.38 634.793 56.9 634.513 56.3C634.246 55.6867 634.113 54.9933 634.113 54.22V48.22H631.633ZM643.119 46.74H644.959L645.599 50.58V58H643.759V50.24L643.119 46.74ZM651.579 46.7V48.36C651.325 48.28 651.025 48.22 650.679 48.18C650.345 48.14 650.025 48.12 649.719 48.12C648.919 48.12 648.205 48.3 647.579 48.66C646.952 49.02 646.465 49.5467 646.119 50.24C645.772 50.92 645.599 51.7267 645.599 52.66L645.079 51.94C645.105 51.1533 645.232 50.4267 645.459 49.76C645.685 49.0933 646.005 48.52 646.419 48.04C646.845 47.5467 647.352 47.1667 647.939 46.9C648.539 46.62 649.212 46.48 649.959 46.48C650.239 46.48 650.525 46.5 650.819 46.54C651.125 46.58 651.379 46.6333 651.579 46.7ZM658.661 58.26C657.367 58.26 656.221 58.0133 655.221 57.52C654.234 57.0133 653.454 56.32 652.881 55.44C652.321 54.5467 652.041 53.52 652.041 52.36C652.041 51.1867 652.307 50.16 652.841 49.28C653.374 48.4 654.114 47.7133 655.061 47.22C656.007 46.7267 657.094 46.48 658.321 46.48C659.534 46.48 660.594 46.7467 661.501 47.28C662.407 47.8133 663.107 48.5667 663.601 49.54C664.107 50.5 664.361 51.62 664.361 52.9H653.441V51.44H663.581L662.501 52.1C662.461 51.26 662.261 50.5333 661.901 49.92C661.541 49.3067 661.054 48.8333 660.441 48.5C659.827 48.1667 659.114 48 658.301 48C657.421 48 656.654 48.18 656.001 48.54C655.347 48.8867 654.834 49.38 654.461 50.02C654.101 50.66 653.921 51.4133 653.921 52.28C653.921 53.1867 654.127 53.9733 654.541 54.64C654.954 55.3067 655.534 55.82 656.281 56.18C657.027 56.54 657.907 56.72 658.921 56.72C659.841 56.72 660.741 56.5667 661.621 56.26C662.514 55.9533 663.314 55.5333 664.021 55V56.44C663.327 57 662.501 57.4467 661.541 57.78C660.581 58.1 659.621 58.26 658.661 58.26ZM672.174 46.7L673.094 46.86L674.014 46.7V58H672.174V46.7ZM673.074 45.04C672.7 45.04 672.38 44.9267 672.114 44.7C671.86 44.46 671.734 44.16 671.734 43.8C671.734 43.4533 671.86 43.1667 672.114 42.94C672.38 42.7 672.7 42.58 673.074 42.58C673.474 42.58 673.8 42.7 674.054 42.94C674.307 43.1667 674.434 43.4533 674.434 43.8C674.434 44.16 674.307 44.46 674.054 44.7C673.8 44.9267 673.474 45.04 673.074 45.04ZM676.478 46.74H678.318L678.958 50.56V58H677.118V50.3L676.478 46.74ZM683.258 46.48C684.231 46.48 685.058 46.6933 685.738 47.12C686.418 47.5333 686.938 48.14 687.298 48.94C687.658 49.7267 687.838 50.68 687.838 51.8V58H685.998V52.12C685.998 50.7733 685.718 49.76 685.158 49.08C684.598 48.3867 683.785 48.04 682.718 48.04C681.958 48.04 681.291 48.2267 680.718 48.6C680.158 48.9733 679.725 49.4933 679.418 50.16C679.111 50.8133 678.958 51.58 678.958 52.46L678.218 51.94C678.311 50.82 678.578 49.8533 679.018 49.04C679.471 48.2267 680.058 47.6 680.778 47.16C681.511 46.7067 682.338 46.48 683.258 46.48ZM692.118 46.48C693.091 46.48 693.918 46.6933 694.598 47.12C695.291 47.5333 695.818 48.14 696.178 48.94C696.538 49.7267 696.718 50.68 696.718 51.8V58H694.878V52.12C694.878 50.7733 694.598 49.76 694.038 49.08C693.478 48.3867 692.665 48.04 691.598 48.04C690.838 48.04 690.171 48.2267 689.598 48.6C689.038 48.9733 688.605 49.4933 688.298 50.16C687.991 50.8133 687.838 51.58 687.838 52.46L687.098 51.94C687.191 50.82 687.458 49.8533 687.898 49.04C688.351 48.2267 688.938 47.6 689.658 47.16C690.391 46.7067 691.211 46.48 692.118 46.48ZM710.237 58L709.837 53.74L710.337 52.36L709.837 51L710.237 46.74H712.117L711.597 52.36L712.117 58H710.237ZM710.957 52.36C710.664 53.5333 710.21 54.5667 709.597 55.46C708.997 56.34 708.264 57.0267 707.397 57.52C706.544 58.0133 705.597 58.26 704.557 58.26C703.45 58.26 702.47 58.0133 701.617 57.52C700.764 57.0133 700.09 56.32 699.597 55.44C699.117 54.5467 698.877 53.52 698.877 52.36C698.877 51.1867 699.117 50.16 699.597 49.28C700.09 48.4 700.764 47.7133 701.617 47.22C702.47 46.7267 703.45 46.48 704.557 46.48C705.597 46.48 706.544 46.7267 707.397 47.22C708.264 47.7133 709.004 48.4 709.617 49.28C710.23 50.16 710.677 51.1867 710.957 52.36ZM700.757 52.36C700.757 53.2133 700.93 53.9667 701.277 54.62C701.637 55.2733 702.124 55.7867 702.737 56.16C703.364 56.52 704.07 56.7 704.857 56.7C705.657 56.7 706.39 56.52 707.057 56.16C707.737 55.7867 708.337 55.2733 708.857 54.62C709.39 53.9667 709.824 53.2133 710.157 52.36C709.824 51.5067 709.39 50.7533 708.857 50.1C708.337 49.4467 707.737 48.94 707.057 48.58C706.39 48.2067 705.657 48.02 704.857 48.02C704.07 48.02 703.364 48.2067 702.737 48.58C702.124 48.94 701.637 49.4467 701.277 50.1C700.93 50.7533 700.757 51.5067 700.757 52.36ZM706.677 42.18H708.597L706.137 45.46H704.297L706.677 42.18ZM725.349 55.26V53.24L725.429 52.94V51.08L725.349 50.68V46.74H727.189V55C727.189 56.4667 726.889 57.6867 726.289 58.66C725.702 59.6333 724.902 60.36 723.889 60.84C722.876 61.32 721.722 61.56 720.429 61.56C719.456 61.56 718.549 61.42 717.709 61.14C716.882 60.8733 716.089 60.46 715.329 59.9V58.28C716.129 58.9333 716.949 59.3867 717.789 59.64C718.642 59.8933 719.489 60.02 720.329 60.02C721.956 60.02 723.196 59.5933 724.049 58.74C724.916 57.9 725.349 56.74 725.349 55.26ZM719.629 57.28C718.616 57.28 717.696 57.0533 716.869 56.6C716.056 56.1467 715.409 55.52 714.929 54.72C714.449 53.9067 714.209 52.96 714.209 51.88C714.209 50.7867 714.449 49.84 714.929 49.04C715.409 48.2267 716.056 47.6 716.869 47.16C717.696 46.7067 718.616 46.48 719.629 46.48C720.389 46.48 721.096 46.6 721.749 46.84C722.402 47.0667 722.996 47.3733 723.529 47.76C724.062 48.1467 724.516 48.58 724.889 49.06C725.262 49.54 725.549 50.0267 725.749 50.52C725.962 51 726.069 51.4533 726.069 51.88C726.069 52.4267 725.909 53.0133 725.589 53.64C725.282 54.2533 724.836 54.84 724.249 55.4C723.676 55.9467 722.996 56.4 722.209 56.76C721.436 57.1067 720.576 57.28 719.629 57.28ZM720.129 55.8C721.169 55.8 722.129 55.4933 723.009 54.88C723.889 54.2667 724.696 53.2667 725.429 51.88C724.709 50.4667 723.902 49.46 723.009 48.86C722.129 48.2467 721.169 47.94 720.129 47.94C719.262 47.94 718.522 48.1133 717.909 48.46C717.309 48.7933 716.849 49.2533 716.529 49.84C716.222 50.4267 716.069 51.1067 716.069 51.88C716.069 52.6267 716.222 53.3 716.529 53.9C716.849 54.4867 717.309 54.9533 717.909 55.3C718.522 55.6333 719.262 55.8 720.129 55.8ZM736.044 58.26C734.75 58.26 733.604 58.0133 732.604 57.52C731.617 57.0133 730.837 56.32 730.264 55.44C729.704 54.5467 729.424 53.52 729.424 52.36C729.424 51.1867 729.69 50.16 730.224 49.28C730.757 48.4 731.497 47.7133 732.444 47.22C733.39 46.7267 734.477 46.48 735.704 46.48C736.917 46.48 737.977 46.7467 738.884 47.28C739.79 47.8133 740.49 48.5667 740.984 49.54C741.49 50.5 741.744 51.62 741.744 52.9H730.824V51.44H740.964L739.884 52.1C739.844 51.26 739.644 50.5333 739.284 49.92C738.924 49.3067 738.437 48.8333 737.824 48.5C737.21 48.1667 736.497 48 735.684 48C734.804 48 734.037 48.18 733.384 48.54C732.73 48.8867 732.217 49.38 731.844 50.02C731.484 50.66 731.304 51.4133 731.304 52.28C731.304 53.1867 731.51 53.9733 731.924 54.64C732.337 55.3067 732.917 55.82 733.664 56.18C734.41 56.54 735.29 56.72 736.304 56.72C737.224 56.72 738.124 56.5667 739.004 56.26C739.897 55.9533 740.697 55.5333 741.404 55V56.44C740.71 57 739.884 57.4467 738.924 57.78C737.964 58.1 737.004 58.26 736.044 58.26ZM743.509 46.74H745.349L745.989 50.56V58H744.149V50.3L743.509 46.74ZM750.649 46.48C751.703 46.48 752.596 46.6933 753.329 47.12C754.063 47.5333 754.623 48.14 755.009 48.94C755.396 49.7267 755.589 50.68 755.589 51.8V58H753.749V52.12C753.749 50.7733 753.436 49.76 752.809 49.08C752.196 48.3867 751.296 48.04 750.109 48.04C749.283 48.04 748.556 48.2267 747.929 48.6C747.316 48.9733 746.836 49.4933 746.489 50.16C746.156 50.8133 745.989 51.58 745.989 52.46L745.249 51.94C745.343 50.82 745.629 49.8533 746.109 49.04C746.589 48.2267 747.216 47.6 747.989 47.16C748.776 46.7067 749.663 46.48 750.649 46.48ZM764.344 58.26C763.051 58.26 761.904 58.0133 760.904 57.52C759.918 57.0133 759.138 56.32 758.564 55.44C758.004 54.5467 757.724 53.52 757.724 52.36C757.724 51.1867 757.991 50.16 758.524 49.28C759.058 48.4 759.798 47.7133 760.744 47.22C761.691 46.7267 762.778 46.48 764.004 46.48C765.218 46.48 766.278 46.7467 767.184 47.28C768.091 47.8133 768.791 48.5667 769.284 49.54C769.791 50.5 770.044 51.62 770.044 52.9H759.124V51.44H769.264L768.184 52.1C768.144 51.26 767.944 50.5333 767.584 49.92C767.224 49.3067 766.738 48.8333 766.124 48.5C765.511 48.1667 764.798 48 763.984 48C763.104 48 762.338 48.18 761.684 48.54C761.031 48.8867 760.518 49.38 760.144 50.02C759.784 50.66 759.604 51.4133 759.604 52.28C759.604 53.1867 759.811 53.9733 760.224 54.64C760.638 55.3067 761.218 55.82 761.964 56.18C762.711 56.54 763.591 56.72 764.604 56.72C765.524 56.72 766.424 56.5667 767.304 56.26C768.198 55.9533 768.998 55.5333 769.704 55V56.44C769.011 57 768.184 57.4467 767.224 57.78C766.264 58.1 765.304 58.26 764.344 58.26ZM783.31 54.7C783.31 55.42 783.09 56.0467 782.65 56.58C782.223 57.1133 781.59 57.5267 780.75 57.82C779.923 58.1133 778.917 58.26 777.73 58.26C776.517 58.26 775.443 58.0933 774.51 57.76C773.59 57.4133 772.87 56.9333 772.35 56.32C771.83 55.7067 771.55 54.9933 771.51 54.18H773.39C773.47 54.7 773.703 55.16 774.09 55.56C774.477 55.9467 774.983 56.2467 775.61 56.46C776.237 56.6733 776.95 56.78 777.75 56.78C778.91 56.78 779.817 56.6067 780.47 56.26C781.137 55.9 781.47 55.4133 781.47 54.8C781.47 54.32 781.257 53.9667 780.83 53.74C780.403 53.5 779.61 53.32 778.45 53.2L776.27 52.98C775.19 52.8733 774.323 52.68 773.67 52.4C773.03 52.1067 772.57 51.7467 772.29 51.32C772.01 50.88 771.87 50.3933 771.87 49.86C771.87 49.1267 772.09 48.5133 772.53 48.02C772.983 47.5133 773.61 47.1333 774.41 46.88C775.21 46.6133 776.137 46.48 777.19 46.48C778.31 46.48 779.303 46.64 780.17 46.96C781.05 47.28 781.75 47.7267 782.27 48.3C782.79 48.8733 783.077 49.5333 783.13 50.28H781.27C781.203 49.8533 781.003 49.4667 780.67 49.12C780.337 48.76 779.87 48.4733 779.27 48.26C778.683 48.0467 777.957 47.94 777.09 47.94C776.023 47.94 775.19 48.0933 774.59 48.4C774.003 48.7067 773.71 49.1533 773.71 49.74C773.71 50.1667 773.903 50.5067 774.29 50.76C774.677 51.0133 775.363 51.1933 776.35 51.3L778.83 51.56C779.963 51.6667 780.857 51.8533 781.51 52.12C782.163 52.3867 782.623 52.7333 782.89 53.16C783.17 53.5867 783.31 54.1 783.31 54.7Z" fill="#8AC926"/>
<path d="M370.599 23.5L370.819 23.02C372.033 23.0333 373.013 23.22 373.759 23.58C374.506 23.9267 375.053 24.4 375.399 25C375.746 25.5867 375.919 26.24 375.919 26.96C375.919 27.7467 375.726 28.4467 375.339 29.06C374.966 29.66 374.413 30.1333 373.679 30.48C372.946 30.8267 372.039 31 370.959 31H361.499L362.679 23.3L361.499 16H370.619C372.006 16 373.066 16.3267 373.799 16.98C374.546 17.62 374.919 18.5 374.919 19.62C374.919 20.2067 374.773 20.7867 374.479 21.36C374.199 21.92 373.746 22.4 373.119 22.8C372.493 23.1867 371.653 23.42 370.599 23.5ZM363.419 30.38L362.699 29.44H370.859C371.846 29.44 372.613 29.22 373.159 28.78C373.719 28.3267 373.999 27.68 373.999 26.84C373.999 25.9467 373.673 25.26 373.019 24.78C372.366 24.3 371.399 24.06 370.119 24.06H363.639V22.54H370.019C370.873 22.54 371.579 22.3067 372.139 21.84C372.713 21.3733 372.999 20.6933 372.999 19.8C372.999 19.1467 372.766 18.6133 372.299 18.2C371.846 17.7733 371.173 17.56 370.279 17.56H362.699L363.419 16.62L364.499 23.3L363.419 30.38Z" fill="#8AC926"/>
<path d="M361.35 30H349.631L355.764 16.4551L361.35 30ZM359.045 29.1992L355.148 19.7559L350.852 29.1992H359.045Z" fill="#8AC926"/>
<path d="M361.35 30V31H362.844L362.274 29.6187L361.35 30ZM349.631 30L348.72 29.5875L348.08 31H349.631V30ZM355.764 16.4551L356.688 16.0738L355.807 13.936L354.853 16.0426L355.764 16.4551ZM359.045 29.1992V30.1992H360.539L359.969 28.8178L359.045 29.1992ZM355.148 19.7559L356.073 19.3744L355.193 17.2428L354.238 19.3417L355.148 19.7559ZM350.852 29.1992L349.941 28.7851L349.298 30.1992H350.852V29.1992ZM361.35 29H349.631V31H361.35V29ZM350.542 30.4125L356.675 16.8675L354.853 16.0426L348.72 29.5875L350.542 30.4125ZM354.839 16.8363L360.425 30.3813L362.274 29.6187L356.688 16.0738L354.839 16.8363ZM359.969 28.8178L356.073 19.3744L354.224 20.1373L358.121 29.5806L359.969 28.8178ZM354.238 19.3417L349.941 28.7851L351.762 29.6134L356.059 20.17L354.238 19.3417ZM350.852 30.1992H359.045V28.1992H350.852V30.1992Z" fill="#8AC926"/>
<path d="M363.287 48.22V47.34L365.767 46.88L366.507 43.82H367.607V46.74H373.087V48.22H367.607V53.94C367.607 54.9533 367.827 55.6667 368.267 56.08C368.72 56.48 369.414 56.68 370.347 56.68C370.96 56.68 371.494 56.6067 371.947 56.46C372.414 56.3133 372.867 56.1 373.307 55.82V57.44C372.987 57.64 372.514 57.8267 371.887 58C371.274 58.1733 370.634 58.26 369.967 58.26C368.954 58.26 368.134 58.0867 367.507 57.74C366.894 57.38 366.447 56.9 366.167 56.3C365.9 55.6867 365.767 54.9933 365.767 54.22V48.22H363.287Z" fill="#8AC926"/>
<path d="M394.899 34.82H406.099V36.32H394.899V34.82ZM394.899 39.52H406.099V41.02H394.899V39.52Z" fill="#8AC926"/>
<path d="M360.51 57H348.791L354.924 43.4551L360.51 57ZM358.205 56.1992L354.309 46.7559L350.012 56.1992H358.205Z" fill="#8AC926"/>
<path d="M360.51 57V58H362.004L361.434 56.6187L360.51 57ZM348.791 57L347.88 56.5875L347.241 58H348.791V57ZM354.924 43.4551L355.848 43.0738L354.967 40.936L354.013 43.0426L354.924 43.4551ZM358.205 56.1992V57.1992H359.699L359.129 55.8178L358.205 56.1992ZM354.309 46.7559L355.233 46.3744L354.353 44.2428L353.398 46.3417L354.309 46.7559ZM350.012 56.1992L349.102 55.7851L348.458 57.1992H350.012V56.1992ZM360.51 56H348.791V58H360.51V56ZM349.702 57.4125L355.835 43.8675L354.013 43.0426L347.88 56.5875L349.702 57.4125ZM353.999 43.8363L359.585 57.3813L361.434 56.6187L355.848 43.0738L353.999 43.8363ZM359.129 55.8178L355.233 46.3744L353.384 47.1373L357.281 56.5806L359.129 55.8178ZM353.398 46.3417L349.102 55.7851L350.922 56.6134L355.219 47.17L353.398 46.3417ZM350.012 57.1992H358.205V55.1992H350.012V57.1992Z" fill="#8AC926"/>
<line x1="415" y1="37.5" x2="785" y2="37.5" stroke="white"/>
<line x1="341" y1="36.5" x2="385" y2="36.5" stroke="white"/>
</svg>
