<svg width="828" height="76" viewBox="0 0 828 76" fill="none" xmlns="http://www.w3.org/2000/svg">
<rect width="828" height="76" fill="#262626"/>
<path d="M103.5 33.74H105.34V38L105.24 38.36V40.18L105.34 40.76V48.3H103.5V33.74ZM104.48 39.36C104.773 38.1867 105.22 37.16 105.82 36.28C106.433 35.4 107.167 34.7133 108.02 34.22C108.887 33.7267 109.84 33.48 110.88 33.48C111.987 33.48 112.967 33.7267 113.82 34.22C114.673 34.7133 115.34 35.4 115.82 36.28C116.313 37.16 116.56 38.1867 116.56 39.36C116.56 40.52 116.313 41.5467 115.82 42.44C115.34 43.32 114.673 44.0133 113.82 44.52C112.967 45.0133 111.987 45.26 110.88 45.26C109.84 45.26 108.887 45.0133 108.02 44.52C107.167 44.0267 106.433 43.34 105.82 42.46C105.22 41.5667 104.773 40.5333 104.48 39.36ZM114.68 39.36C114.68 38.5067 114.5 37.7533 114.14 37.1C113.793 36.4467 113.307 35.94 112.68 35.58C112.067 35.2067 111.367 35.02 110.58 35.02C109.78 35.02 109.04 35.2067 108.36 35.58C107.693 35.94 107.1 36.4467 106.58 37.1C106.06 37.7533 105.627 38.5067 105.28 39.36C105.627 40.2133 106.06 40.9667 106.58 41.62C107.1 42.2733 107.693 42.7867 108.36 43.16C109.04 43.52 109.78 43.7 110.58 43.7C111.367 43.7 112.067 43.52 112.68 43.16C113.307 42.7867 113.793 42.2733 114.14 41.62C114.5 40.9667 114.68 40.2133 114.68 39.36ZM124.831 45.26C123.537 45.26 122.391 45.0133 121.391 44.52C120.404 44.0133 119.624 43.32 119.051 42.44C118.491 41.5467 118.211 40.52 118.211 39.36C118.211 38.1867 118.477 37.16 119.011 36.28C119.544 35.4 120.284 34.7133 121.231 34.22C122.177 33.7267 123.264 33.48 124.491 33.48C125.704 33.48 126.764 33.7467 127.671 34.28C128.577 34.8133 129.277 35.5667 129.771 36.54C130.277 37.5 130.531 38.62 130.531 39.9H119.611V38.44H129.751L128.671 39.1C128.631 38.26 128.431 37.5333 128.071 36.92C127.711 36.3067 127.224 35.8333 126.611 35.5C125.997 35.1667 125.284 35 124.471 35C123.591 35 122.824 35.18 122.171 35.54C121.517 35.8867 121.004 36.38 120.631 37.02C120.271 37.66 120.091 38.4133 120.091 39.28C120.091 40.1867 120.297 40.9733 120.711 41.64C121.124 42.3067 121.704 42.82 122.451 43.18C123.197 43.54 124.077 43.72 125.091 43.72C126.011 43.72 126.911 43.5667 127.791 43.26C128.684 42.9533 129.484 42.5333 130.191 42V43.44C129.497 44 128.671 44.4467 127.711 44.78C126.751 45.1 125.791 45.26 124.831 45.26ZM132.296 33.74H134.136L134.776 37.58V45H132.936V37.24L132.296 33.74ZM140.756 33.7V35.36C140.503 35.28 140.203 35.22 139.856 35.18C139.523 35.14 139.203 35.12 138.896 35.12C138.096 35.12 137.383 35.3 136.756 35.66C136.13 36.02 135.643 36.5467 135.296 37.24C134.95 37.92 134.776 38.7267 134.776 39.66L134.256 38.94C134.283 38.1533 134.41 37.4267 134.636 36.76C134.863 36.0933 135.183 35.52 135.596 35.04C136.023 34.5467 136.53 34.1667 137.116 33.9C137.716 33.62 138.39 33.48 139.136 33.48C139.416 33.48 139.703 33.5 139.996 33.54C140.303 33.58 140.556 33.6333 140.756 33.7ZM142.504 33.7L143.424 33.86L144.344 33.7V45H142.504V33.7ZM143.404 32.04C143.031 32.04 142.711 31.9267 142.444 31.7C142.191 31.46 142.064 31.16 142.064 30.8C142.064 30.4533 142.191 30.1667 142.444 29.94C142.711 29.7 143.031 29.58 143.404 29.58C143.804 29.58 144.131 29.7 144.384 29.94C144.637 30.1667 144.764 30.4533 144.764 30.8C144.764 31.16 144.637 31.46 144.384 31.7C144.131 31.9267 143.804 32.04 143.404 32.04ZM153.328 45.26C152.008 45.26 150.841 45.0133 149.828 44.52C148.828 44.0267 148.048 43.3333 147.488 42.44C146.928 41.5467 146.648 40.52 146.648 39.36C146.648 38.1867 146.928 37.16 147.488 36.28C148.048 35.4 148.828 34.7133 149.828 34.22C150.841 33.7267 152.008 33.48 153.328 33.48C154.661 33.48 155.828 33.7267 156.828 34.22C157.828 34.7133 158.608 35.4 159.168 36.28C159.741 37.16 160.028 38.1867 160.028 39.36C160.028 40.52 159.741 41.5467 159.168 42.44C158.608 43.3333 157.828 44.0267 156.828 44.52C155.828 45.0133 154.661 45.26 153.328 45.26ZM153.328 43.72C154.315 43.72 155.168 43.5467 155.888 43.2C156.608 42.84 157.161 42.3333 157.548 41.68C157.948 41.0267 158.148 40.2533 158.148 39.36C158.148 38.48 157.948 37.7133 157.548 37.06C157.161 36.4067 156.608 35.9 155.888 35.54C155.168 35.18 154.315 35 153.328 35C152.355 35 151.501 35.18 150.768 35.54C150.048 35.9 149.495 36.4067 149.108 37.06C148.721 37.7133 148.528 38.48 148.528 39.36C148.528 40.2533 148.721 41.0267 149.108 41.68C149.495 42.3333 150.048 42.84 150.768 43.2C151.501 43.5467 152.355 43.72 153.328 43.72ZM173.048 45L172.648 40.7L173.188 39.38L172.688 37.96L173.468 29.6H175.348L174.408 39.28L174.928 45H173.048ZM173.748 39.36C173.455 40.5333 173.001 41.5667 172.388 42.46C171.788 43.34 171.055 44.0267 170.188 44.52C169.335 45.0133 168.388 45.26 167.348 45.26C166.241 45.26 165.261 45.0133 164.408 44.52C163.555 44.0133 162.881 43.32 162.388 42.44C161.908 41.5467 161.668 40.52 161.668 39.36C161.668 38.1867 161.908 37.16 162.388 36.28C162.881 35.4 163.555 34.7133 164.408 34.22C165.261 33.7267 166.241 33.48 167.348 33.48C168.388 33.48 169.335 33.7267 170.188 34.22C171.055 34.7133 171.795 35.4 172.408 36.28C173.021 37.16 173.468 38.1867 173.748 39.36ZM163.548 39.36C163.548 40.2133 163.721 40.9667 164.068 41.62C164.428 42.2733 164.915 42.7867 165.528 43.16C166.155 43.52 166.861 43.7 167.648 43.7C168.448 43.7 169.181 43.52 169.848 43.16C170.528 42.7867 171.128 42.2733 171.648 41.62C172.181 40.9667 172.615 40.2133 172.948 39.36C172.615 38.5067 172.181 37.7533 171.648 37.1C171.128 36.4467 170.528 35.94 169.848 35.58C169.181 35.2067 168.448 35.02 167.648 35.02C166.861 35.02 166.155 35.2067 165.528 35.58C164.915 35.94 164.428 36.4467 164.068 37.1C163.721 37.7533 163.548 38.5067 163.548 39.36ZM183.66 45.26C182.34 45.26 181.173 45.0133 180.16 44.52C179.16 44.0267 178.38 43.3333 177.82 42.44C177.26 41.5467 176.98 40.52 176.98 39.36C176.98 38.1867 177.26 37.16 177.82 36.28C178.38 35.4 179.16 34.7133 180.16 34.22C181.173 33.7267 182.34 33.48 183.66 33.48C184.993 33.48 186.16 33.7267 187.16 34.22C188.16 34.7133 188.94 35.4 189.5 36.28C190.073 37.16 190.36 38.1867 190.36 39.36C190.36 40.52 190.073 41.5467 189.5 42.44C188.94 43.3333 188.16 44.0267 187.16 44.52C186.16 45.0133 184.993 45.26 183.66 45.26ZM183.66 43.72C184.647 43.72 185.5 43.5467 186.22 43.2C186.94 42.84 187.493 42.3333 187.88 41.68C188.28 41.0267 188.48 40.2533 188.48 39.36C188.48 38.48 188.28 37.7133 187.88 37.06C187.493 36.4067 186.94 35.9 186.22 35.54C185.5 35.18 184.647 35 183.66 35C182.687 35 181.833 35.18 181.1 35.54C180.38 35.9 179.827 36.4067 179.44 37.06C179.053 37.7133 178.86 38.48 178.86 39.36C178.86 40.2533 179.053 41.0267 179.44 41.68C179.827 42.3333 180.38 42.84 181.1 43.2C181.833 43.5467 182.687 43.72 183.66 43.72ZM208.908 45L208.508 40.7L209.048 39.38L208.548 37.96L209.328 29.6H211.208L210.268 39.28L210.788 45H208.908ZM209.608 39.36C209.314 40.5333 208.861 41.5667 208.248 42.46C207.648 43.34 206.914 44.0267 206.048 44.52C205.194 45.0133 204.248 45.26 203.208 45.26C202.101 45.26 201.121 45.0133 200.268 44.52C199.414 44.0133 198.741 43.32 198.248 42.44C197.768 41.5467 197.528 40.52 197.528 39.36C197.528 38.1867 197.768 37.16 198.248 36.28C198.741 35.4 199.414 34.7133 200.268 34.22C201.121 33.7267 202.101 33.48 203.208 33.48C204.248 33.48 205.194 33.7267 206.048 34.22C206.914 34.7133 207.654 35.4 208.268 36.28C208.881 37.16 209.328 38.1867 209.608 39.36ZM199.408 39.36C199.408 40.2133 199.581 40.9667 199.928 41.62C200.288 42.2733 200.774 42.7867 201.388 43.16C202.014 43.52 202.721 43.7 203.508 43.7C204.308 43.7 205.041 43.52 205.708 43.16C206.388 42.7867 206.988 42.2733 207.508 41.62C208.041 40.9667 208.474 40.2133 208.808 39.36C208.474 38.5067 208.041 37.7533 207.508 37.1C206.988 36.4467 206.388 35.94 205.708 35.58C205.041 35.2067 204.308 35.02 203.508 35.02C202.721 35.02 202.014 35.2067 201.388 35.58C200.774 35.94 200.288 36.4467 199.928 37.1C199.581 37.7533 199.408 38.5067 199.408 39.36ZM219.46 45.26C218.166 45.26 217.02 45.0133 216.02 44.52C215.033 44.0133 214.253 43.32 213.68 42.44C213.12 41.5467 212.84 40.52 212.84 39.36C212.84 38.1867 213.106 37.16 213.64 36.28C214.173 35.4 214.913 34.7133 215.86 34.22C216.806 33.7267 217.893 33.48 219.12 33.48C220.333 33.48 221.393 33.7467 222.3 34.28C223.206 34.8133 223.906 35.5667 224.4 36.54C224.906 37.5 225.16 38.62 225.16 39.9H214.24V38.44H224.38L223.3 39.1C223.26 38.26 223.06 37.5333 222.7 36.92C222.34 36.3067 221.853 35.8333 221.24 35.5C220.626 35.1667 219.913 35 219.1 35C218.22 35 217.453 35.18 216.8 35.54C216.146 35.8867 215.633 36.38 215.26 37.02C214.9 37.66 214.72 38.4133 214.72 39.28C214.72 40.1867 214.926 40.9733 215.34 41.64C215.753 42.3067 216.333 42.82 217.08 43.18C217.826 43.54 218.706 43.72 219.72 43.72C220.64 43.72 221.54 43.5667 222.42 43.26C223.313 42.9533 224.113 42.5333 224.82 42V43.44C224.126 44 223.3 44.4467 222.34 44.78C221.38 45.1 220.42 45.26 219.46 45.26ZM232.453 33.74H234.293L234.933 37.58V45H233.093V37.24L232.453 33.74ZM240.913 33.7V35.36C240.659 35.28 240.359 35.22 240.013 35.18C239.679 35.14 239.359 35.12 239.053 35.12C238.253 35.12 237.539 35.3 236.913 35.66C236.286 36.02 235.799 36.5467 235.453 37.24C235.106 37.92 234.933 38.7267 234.933 39.66L234.413 38.94C234.439 38.1533 234.566 37.4267 234.793 36.76C235.019 36.0933 235.339 35.52 235.753 35.04C236.179 34.5467 236.686 34.1667 237.273 33.9C237.873 33.62 238.546 33.48 239.293 33.48C239.573 33.48 239.859 33.5 240.153 33.54C240.459 33.58 240.713 33.6333 240.913 33.7ZM248.055 45.26C246.735 45.26 245.568 45.0133 244.555 44.52C243.555 44.0267 242.775 43.3333 242.215 42.44C241.655 41.5467 241.375 40.52 241.375 39.36C241.375 38.1867 241.655 37.16 242.215 36.28C242.775 35.4 243.555 34.7133 244.555 34.22C245.568 33.7267 246.735 33.48 248.055 33.48C249.388 33.48 250.555 33.7267 251.555 34.22C252.555 34.7133 253.335 35.4 253.895 36.28C254.468 37.16 254.755 38.1867 254.755 39.36C254.755 40.52 254.468 41.5467 253.895 42.44C253.335 43.3333 252.555 44.0267 251.555 44.52C250.555 45.0133 249.388 45.26 248.055 45.26ZM248.055 43.72C249.041 43.72 249.895 43.5467 250.615 43.2C251.335 42.84 251.888 42.3333 252.275 41.68C252.675 41.0267 252.875 40.2533 252.875 39.36C252.875 38.48 252.675 37.7133 252.275 37.06C251.888 36.4067 251.335 35.9 250.615 35.54C249.895 35.18 249.041 35 248.055 35C247.081 35 246.228 35.18 245.495 35.54C244.775 35.9 244.221 36.4067 243.835 37.06C243.448 37.7133 243.255 38.48 243.255 39.36C243.255 40.2533 243.448 41.0267 243.835 41.68C244.221 42.3333 244.775 42.84 245.495 43.2C246.228 43.5467 247.081 43.72 248.055 43.72ZM255.4 35.22V34.34L257.88 33.88L258.62 30.82H259.72V33.74H265.2V35.22H259.72V40.94C259.72 41.9533 259.94 42.6667 260.38 43.08C260.834 43.48 261.527 43.68 262.46 43.68C263.074 43.68 263.607 43.6067 264.06 43.46C264.527 43.3133 264.98 43.1 265.42 42.82V44.44C265.1 44.64 264.627 44.8267 264 45C263.387 45.1733 262.747 45.26 262.08 45.26C261.067 45.26 260.247 45.0867 259.62 44.74C259.007 44.38 258.56 43.9 258.28 43.3C258.014 42.6867 257.88 41.9933 257.88 41.22V35.22H255.4ZM277.735 45L277.335 40.74L277.835 39.36L277.335 38L277.735 33.74H279.615L279.095 39.36L279.615 45H277.735ZM278.455 39.36C278.162 40.5333 277.708 41.5667 277.095 42.46C276.495 43.34 275.762 44.0267 274.895 44.52C274.042 45.0133 273.095 45.26 272.055 45.26C270.948 45.26 269.968 45.0133 269.115 44.52C268.262 44.0133 267.588 43.32 267.095 42.44C266.615 41.5467 266.375 40.52 266.375 39.36C266.375 38.1867 266.615 37.16 267.095 36.28C267.588 35.4 268.262 34.7133 269.115 34.22C269.968 33.7267 270.948 33.48 272.055 33.48C273.095 33.48 274.042 33.7267 274.895 34.22C275.762 34.7133 276.502 35.4 277.115 36.28C277.728 37.16 278.175 38.1867 278.455 39.36ZM268.255 39.36C268.255 40.2133 268.428 40.9667 268.775 41.62C269.135 42.2733 269.622 42.7867 270.235 43.16C270.862 43.52 271.568 43.7 272.355 43.7C273.155 43.7 273.888 43.52 274.555 43.16C275.235 42.7867 275.835 42.2733 276.355 41.62C276.888 40.9667 277.322 40.2133 277.655 39.36C277.322 38.5067 276.888 37.7533 276.355 37.1C275.835 36.4467 275.235 35.94 274.555 35.58C273.888 35.2067 273.155 35.02 272.355 35.02C271.568 35.02 270.862 35.2067 270.235 35.58C269.622 35.94 269.135 36.4467 268.775 37.1C268.428 37.7533 268.255 38.5067 268.255 39.36ZM294.327 40.72C294.181 41.6133 293.814 42.4 293.227 43.08C292.654 43.76 291.921 44.2933 291.027 44.68C290.134 45.0667 289.147 45.26 288.067 45.26C286.814 45.26 285.707 45.0133 284.747 44.52C283.787 44.0133 283.034 43.32 282.487 42.44C281.954 41.5467 281.687 40.52 281.687 39.36C281.687 38.2 281.954 37.18 282.487 36.3C283.034 35.4067 283.787 34.7133 284.747 34.22C285.707 33.7267 286.814 33.48 288.067 33.48C289.147 33.48 290.134 33.6733 291.027 34.06C291.921 34.4333 292.654 34.96 293.227 35.64C293.814 36.32 294.181 37.1133 294.327 38.02H292.427C292.227 37.0867 291.727 36.3533 290.927 35.82C290.141 35.2733 289.187 35 288.067 35C287.161 35 286.367 35.18 285.687 35.54C285.021 35.9 284.501 36.4067 284.127 37.06C283.754 37.7 283.567 38.4667 283.567 39.36C283.567 40.2533 283.754 41.0267 284.127 41.68C284.501 42.3333 285.021 42.84 285.687 43.2C286.367 43.5467 287.161 43.72 288.067 43.72C289.201 43.72 290.161 43.4467 290.947 42.9C291.747 42.3533 292.241 41.6267 292.427 40.72H294.327ZM296.508 33.7L297.428 33.86L298.348 33.7V45H296.508V33.7ZM297.408 32.04C297.034 32.04 296.714 31.9267 296.448 31.7C296.194 31.46 296.068 31.16 296.068 30.8C296.068 30.4533 296.194 30.1667 296.448 29.94C296.714 29.7 297.034 29.58 297.408 29.58C297.808 29.58 298.134 29.7 298.388 29.94C298.641 30.1667 298.768 30.4533 298.768 30.8C298.768 31.16 298.641 31.46 298.388 31.7C298.134 31.9267 297.808 32.04 297.408 32.04ZM307.332 45.26C306.012 45.26 304.845 45.0133 303.832 44.52C302.832 44.0267 302.052 43.3333 301.492 42.44C300.932 41.5467 300.652 40.52 300.652 39.36C300.652 38.1867 300.932 37.16 301.492 36.28C302.052 35.4 302.832 34.7133 303.832 34.22C304.845 33.7267 306.012 33.48 307.332 33.48C308.665 33.48 309.832 33.7267 310.832 34.22C311.832 34.7133 312.612 35.4 313.172 36.28C313.745 37.16 314.032 38.1867 314.032 39.36C314.032 40.52 313.745 41.5467 313.172 42.44C312.612 43.3333 311.832 44.0267 310.832 44.52C309.832 45.0133 308.665 45.26 307.332 45.26ZM307.332 43.72C308.319 43.72 309.172 43.5467 309.892 43.2C310.612 42.84 311.165 42.3333 311.552 41.68C311.952 41.0267 312.152 40.2533 312.152 39.36C312.152 38.48 311.952 37.7133 311.552 37.06C311.165 36.4067 310.612 35.9 309.892 35.54C309.172 35.18 308.319 35 307.332 35C306.359 35 305.505 35.18 304.772 35.54C304.052 35.9 303.499 36.4067 303.112 37.06C302.725 37.7133 302.532 38.48 302.532 39.36C302.532 40.2533 302.725 41.0267 303.112 41.68C303.499 42.3333 304.052 42.84 304.772 43.2C305.505 43.5467 306.359 43.72 307.332 43.72ZM308.512 29.18H310.432L307.972 32.46H306.132L308.512 29.18ZM315.812 33.74H317.652L318.292 37.56V45H316.452V37.3L315.812 33.74ZM322.952 33.48C324.005 33.48 324.899 33.6933 325.632 34.12C326.365 34.5333 326.925 35.14 327.312 35.94C327.699 36.7267 327.892 37.68 327.892 38.8V45H326.052V39.12C326.052 37.7733 325.739 36.76 325.112 36.08C324.499 35.3867 323.599 35.04 322.412 35.04C321.585 35.04 320.859 35.2267 320.232 35.6C319.619 35.9733 319.139 36.4933 318.792 37.16C318.459 37.8133 318.292 38.58 318.292 39.46L317.552 38.94C317.645 37.82 317.932 36.8533 318.412 36.04C318.892 35.2267 319.519 34.6 320.292 34.16C321.079 33.7067 321.965 33.48 322.952 33.48ZM335.334 34.82H346.534V36.32H335.334V34.82ZM335.334 39.52H346.534V41.02H335.334V39.52Z" fill="#8AC926"/>
<path d="M427.372 57.26H426.392L433.212 43H435.252L427.872 58H425.832L418.452 43H420.492L427.372 57.26ZM440.848 58.26C439.555 58.26 438.408 58.0133 437.408 57.52C436.422 57.0133 435.642 56.32 435.068 55.44C434.508 54.5467 434.228 53.52 434.228 52.36C434.228 51.1867 434.495 50.16 435.028 49.28C435.562 48.4 436.302 47.7133 437.248 47.22C438.195 46.7267 439.282 46.48 440.508 46.48C441.722 46.48 442.782 46.7467 443.688 47.28C444.595 47.8133 445.295 48.5667 445.788 49.54C446.295 50.5 446.548 51.62 446.548 52.9H435.628V51.44H445.768L444.688 52.1C444.648 51.26 444.448 50.5333 444.088 49.92C443.728 49.3067 443.242 48.8333 442.628 48.5C442.015 48.1667 441.302 48 440.488 48C439.608 48 438.842 48.18 438.188 48.54C437.535 48.8867 437.022 49.38 436.648 50.02C436.288 50.66 436.108 51.4133 436.108 52.28C436.108 53.1867 436.315 53.9733 436.728 54.64C437.142 55.3067 437.722 55.82 438.468 56.18C439.215 56.54 440.095 56.72 441.108 56.72C442.028 56.72 442.928 56.5667 443.808 56.26C444.702 55.9533 445.502 55.5333 446.208 55V56.44C445.515 57 444.688 57.4467 443.728 57.78C442.768 58.1 441.808 58.26 440.848 58.26ZM448.834 42.6H450.674V58H448.834V42.6ZM459.658 58.26C458.338 58.26 457.172 58.0133 456.158 57.52C455.158 57.0267 454.378 56.3333 453.818 55.44C453.258 54.5467 452.978 53.52 452.978 52.36C452.978 51.1867 453.258 50.16 453.818 49.28C454.378 48.4 455.158 47.7133 456.158 47.22C457.172 46.7267 458.338 46.48 459.658 46.48C460.992 46.48 462.158 46.7267 463.158 47.22C464.158 47.7133 464.938 48.4 465.498 49.28C466.072 50.16 466.358 51.1867 466.358 52.36C466.358 53.52 466.072 54.5467 465.498 55.44C464.938 56.3333 464.158 57.0267 463.158 57.52C462.158 58.0133 460.992 58.26 459.658 58.26ZM459.658 56.72C460.645 56.72 461.498 56.5467 462.218 56.2C462.938 55.84 463.492 55.3333 463.878 54.68C464.278 54.0267 464.478 53.2533 464.478 52.36C464.478 51.48 464.278 50.7133 463.878 50.06C463.492 49.4067 462.938 48.9 462.218 48.54C461.498 48.18 460.645 48 459.658 48C458.685 48 457.832 48.18 457.098 48.54C456.378 48.9 455.825 49.4067 455.438 50.06C455.052 50.7133 454.858 51.48 454.858 52.36C454.858 53.2533 455.052 54.0267 455.438 54.68C455.825 55.3333 456.378 55.84 457.098 56.2C457.832 56.5467 458.685 56.72 459.658 56.72ZM480.618 53.72C480.472 54.6133 480.105 55.4 479.518 56.08C478.945 56.76 478.212 57.2933 477.318 57.68C476.425 58.0667 475.438 58.26 474.358 58.26C473.105 58.26 471.998 58.0133 471.038 57.52C470.078 57.0133 469.325 56.32 468.778 55.44C468.245 54.5467 467.978 53.52 467.978 52.36C467.978 51.2 468.245 50.18 468.778 49.3C469.325 48.4067 470.078 47.7133 471.038 47.22C471.998 46.7267 473.105 46.48 474.358 46.48C475.438 46.48 476.425 46.6733 477.318 47.06C478.212 47.4333 478.945 47.96 479.518 48.64C480.105 49.32 480.472 50.1133 480.618 51.02H478.718C478.518 50.0867 478.018 49.3533 477.218 48.82C476.432 48.2733 475.478 48 474.358 48C473.452 48 472.658 48.18 471.978 48.54C471.312 48.9 470.792 49.4067 470.418 50.06C470.045 50.7 469.858 51.4667 469.858 52.36C469.858 53.2533 470.045 54.0267 470.418 54.68C470.792 55.3333 471.312 55.84 471.978 56.2C472.658 56.5467 473.452 56.72 474.358 56.72C475.492 56.72 476.452 56.4467 477.238 55.9C478.038 55.3533 478.532 54.6267 478.718 53.72H480.618ZM482.799 46.7L483.719 46.86L484.639 46.7V58H482.799V46.7ZM483.699 45.04C483.325 45.04 483.005 44.9267 482.739 44.7C482.485 44.46 482.359 44.16 482.359 43.8C482.359 43.4533 482.485 43.1667 482.739 42.94C483.005 42.7 483.325 42.58 483.699 42.58C484.099 42.58 484.425 42.7 484.679 42.94C484.932 43.1667 485.059 43.4533 485.059 43.8C485.059 44.16 484.932 44.46 484.679 44.7C484.425 44.9267 484.099 45.04 483.699 45.04ZM498.343 58L497.943 53.7L498.483 52.38L497.983 50.96L498.763 42.6H500.643L499.703 52.28L500.223 58H498.343ZM499.043 52.36C498.75 53.5333 498.296 54.5667 497.683 55.46C497.083 56.34 496.35 57.0267 495.483 57.52C494.63 58.0133 493.683 58.26 492.643 58.26C491.536 58.26 490.556 58.0133 489.703 57.52C488.85 57.0133 488.176 56.32 487.683 55.44C487.203 54.5467 486.963 53.52 486.963 52.36C486.963 51.1867 487.203 50.16 487.683 49.28C488.176 48.4 488.85 47.7133 489.703 47.22C490.556 46.7267 491.536 46.48 492.643 46.48C493.683 46.48 494.63 46.7267 495.483 47.22C496.35 47.7133 497.09 48.4 497.703 49.28C498.316 50.16 498.763 51.1867 499.043 52.36ZM488.843 52.36C488.843 53.2133 489.016 53.9667 489.363 54.62C489.723 55.2733 490.21 55.7867 490.823 56.16C491.45 56.52 492.156 56.7 492.943 56.7C493.743 56.7 494.476 56.52 495.143 56.16C495.823 55.7867 496.423 55.2733 496.943 54.62C497.476 53.9667 497.91 53.2133 498.243 52.36C497.91 51.5067 497.476 50.7533 496.943 50.1C496.423 49.4467 495.823 48.94 495.143 48.58C494.476 48.2067 493.743 48.02 492.943 48.02C492.156 48.02 491.45 48.2067 490.823 48.58C490.21 48.94 489.723 49.4467 489.363 50.1C489.016 50.7533 488.843 51.5067 488.843 52.36ZM513.655 58L513.255 53.74L513.755 52.36L513.255 51L513.655 46.74H515.535L515.015 52.36L515.535 58H513.655ZM514.375 52.36C514.082 53.5333 513.628 54.5667 513.015 55.46C512.415 56.34 511.682 57.0267 510.815 57.52C509.962 58.0133 509.015 58.26 507.975 58.26C506.868 58.26 505.888 58.0133 505.035 57.52C504.182 57.0133 503.508 56.32 503.015 55.44C502.535 54.5467 502.295 53.52 502.295 52.36C502.295 51.1867 502.535 50.16 503.015 49.28C503.508 48.4 504.182 47.7133 505.035 47.22C505.888 46.7267 506.868 46.48 507.975 46.48C509.015 46.48 509.962 46.7267 510.815 47.22C511.682 47.7133 512.422 48.4 513.035 49.28C513.648 50.16 514.095 51.1867 514.375 52.36ZM504.175 52.36C504.175 53.2133 504.348 53.9667 504.695 54.62C505.055 55.2733 505.542 55.7867 506.155 56.16C506.782 56.52 507.488 56.7 508.275 56.7C509.075 56.7 509.808 56.52 510.475 56.16C511.155 55.7867 511.755 55.2733 512.275 54.62C512.808 53.9667 513.242 53.2133 513.575 52.36C513.242 51.5067 512.808 50.7533 512.275 50.1C511.755 49.4467 511.155 48.94 510.475 48.58C509.808 48.2067 509.075 48.02 508.275 48.02C507.488 48.02 506.782 48.2067 506.155 48.58C505.542 48.94 505.055 49.4467 504.695 50.1C504.348 50.7533 504.175 51.5067 504.175 52.36ZM529.007 58L528.607 53.7L529.147 52.38L528.647 50.96L529.427 42.6H531.307L530.367 52.28L530.887 58H529.007ZM529.707 52.36C529.414 53.5333 528.96 54.5667 528.347 55.46C527.747 56.34 527.014 57.0267 526.147 57.52C525.294 58.0133 524.347 58.26 523.307 58.26C522.2 58.26 521.22 58.0133 520.367 57.52C519.514 57.0133 518.84 56.32 518.347 55.44C517.867 54.5467 517.627 53.52 517.627 52.36C517.627 51.1867 517.867 50.16 518.347 49.28C518.84 48.4 519.514 47.7133 520.367 47.22C521.22 46.7267 522.2 46.48 523.307 46.48C524.347 46.48 525.294 46.7267 526.147 47.22C527.014 47.7133 527.754 48.4 528.367 49.28C528.98 50.16 529.427 51.1867 529.707 52.36ZM519.507 52.36C519.507 53.2133 519.68 53.9667 520.027 54.62C520.387 55.2733 520.874 55.7867 521.487 56.16C522.114 56.52 522.82 56.7 523.607 56.7C524.407 56.7 525.14 56.52 525.807 56.16C526.487 55.7867 527.087 55.2733 527.607 54.62C528.14 53.9667 528.574 53.2133 528.907 52.36C528.574 51.5067 528.14 50.7533 527.607 50.1C527.087 49.4467 526.487 48.94 525.807 48.58C525.14 48.2067 524.407 48.02 523.607 48.02C522.82 48.02 522.114 48.2067 521.487 48.58C520.874 48.94 520.387 49.4467 520.027 50.1C519.68 50.7533 519.507 51.5067 519.507 52.36ZM549.846 58L549.446 53.74L549.946 52.36L549.446 51L549.846 46.74H551.726L551.206 52.36L551.726 58H549.846ZM550.566 52.36C550.273 53.5333 549.82 54.5667 549.206 55.46C548.606 56.34 547.873 57.0267 547.006 57.52C546.153 58.0133 545.206 58.26 544.166 58.26C543.06 58.26 542.08 58.0133 541.226 57.52C540.373 57.0133 539.7 56.32 539.206 55.44C538.726 54.5467 538.486 53.52 538.486 52.36C538.486 51.1867 538.726 50.16 539.206 49.28C539.7 48.4 540.373 47.7133 541.226 47.22C542.08 46.7267 543.06 46.48 544.166 46.48C545.206 46.48 546.153 46.7267 547.006 47.22C547.873 47.7133 548.613 48.4 549.226 49.28C549.84 50.16 550.286 51.1867 550.566 52.36ZM540.366 52.36C540.366 53.2133 540.54 53.9667 540.886 54.62C541.246 55.2733 541.733 55.7867 542.346 56.16C542.973 56.52 543.68 56.7 544.466 56.7C545.266 56.7 546 56.52 546.666 56.16C547.346 55.7867 547.946 55.2733 548.466 54.62C549 53.9667 549.433 53.2133 549.766 52.36C549.433 51.5067 549 50.7533 548.466 50.1C547.946 49.4467 547.346 48.94 546.666 48.58C546 48.2067 545.266 48.02 544.466 48.02C543.68 48.02 542.973 48.2067 542.346 48.58C541.733 48.94 541.246 49.4467 540.886 50.1C540.54 50.7533 540.366 51.5067 540.366 52.36ZM553.959 46.74H555.799L556.439 50.56V58H554.599V50.3L553.959 46.74ZM561.099 46.48C562.152 46.48 563.045 46.6933 563.779 47.12C564.512 47.5333 565.072 48.14 565.459 48.94C565.845 49.7267 566.039 50.68 566.039 51.8V58H564.199V52.12C564.199 50.7733 563.885 49.76 563.259 49.08C562.645 48.3867 561.745 48.04 560.559 48.04C559.732 48.04 559.005 48.2267 558.379 48.6C557.765 48.9733 557.285 49.4933 556.939 50.16C556.605 50.8133 556.439 51.58 556.439 52.46L555.699 51.94C555.792 50.82 556.079 49.8533 556.559 49.04C557.039 48.2267 557.665 47.6 558.439 47.16C559.225 46.7067 560.112 46.48 561.099 46.48ZM579.334 55.26V53.24L579.414 52.94V51.08L579.334 50.68V46.74H581.174V55C581.174 56.4667 580.874 57.6867 580.274 58.66C579.687 59.6333 578.887 60.36 577.874 60.84C576.86 61.32 575.707 61.56 574.414 61.56C573.44 61.56 572.534 61.42 571.694 61.14C570.867 60.8733 570.074 60.46 569.314 59.9V58.28C570.114 58.9333 570.934 59.3867 571.774 59.64C572.627 59.8933 573.474 60.02 574.314 60.02C575.94 60.02 577.18 59.5933 578.034 58.74C578.9 57.9 579.334 56.74 579.334 55.26ZM573.614 57.28C572.6 57.28 571.68 57.0533 570.854 56.6C570.04 56.1467 569.394 55.52 568.914 54.72C568.434 53.9067 568.194 52.96 568.194 51.88C568.194 50.7867 568.434 49.84 568.914 49.04C569.394 48.2267 570.04 47.6 570.854 47.16C571.68 46.7067 572.6 46.48 573.614 46.48C574.374 46.48 575.08 46.6 575.734 46.84C576.387 47.0667 576.98 47.3733 577.514 47.76C578.047 48.1467 578.5 48.58 578.874 49.06C579.247 49.54 579.534 50.0267 579.734 50.52C579.947 51 580.054 51.4533 580.054 51.88C580.054 52.4267 579.894 53.0133 579.574 53.64C579.267 54.2533 578.82 54.84 578.234 55.4C577.66 55.9467 576.98 56.4 576.194 56.76C575.42 57.1067 574.56 57.28 573.614 57.28ZM574.114 55.8C575.154 55.8 576.114 55.4933 576.994 54.88C577.874 54.2667 578.68 53.2667 579.414 51.88C578.694 50.4667 577.887 49.46 576.994 48.86C576.114 48.2467 575.154 47.94 574.114 47.94C573.247 47.94 572.507 48.1133 571.894 48.46C571.294 48.7933 570.834 49.2533 570.514 49.84C570.207 50.4267 570.054 51.1067 570.054 51.88C570.054 52.6267 570.207 53.3 570.514 53.9C570.834 54.4867 571.294 54.9533 571.894 55.3C572.507 55.6333 573.247 55.8 574.114 55.8ZM588.748 58.26C587.721 58.26 586.848 58.0533 586.128 57.64C585.421 57.2133 584.875 56.6 584.488 55.8C584.115 55 583.928 54.04 583.928 52.92V46.74H585.768V52.62C585.768 53.9533 586.068 54.9667 586.668 55.66C587.268 56.34 588.141 56.68 589.288 56.68C590.101 56.68 590.808 56.5 591.408 56.14C592.008 55.7667 592.475 55.2467 592.808 54.58C593.141 53.9133 593.308 53.14 593.308 52.26L594.028 52.68C593.948 53.8133 593.668 54.8 593.188 55.64C592.721 56.48 592.108 57.1267 591.348 57.58C590.588 58.0333 589.721 58.26 588.748 58.26ZM593.928 58L593.308 54.16V46.74H595.148V54.44L595.768 58H593.928ZM598.248 42.6H600.088V58H598.248V42.6ZM613.772 58L613.372 53.74L613.872 52.36L613.372 51L613.772 46.74H615.652L615.132 52.36L615.652 58H613.772ZM614.492 52.36C614.199 53.5333 613.746 54.5667 613.132 55.46C612.532 56.34 611.799 57.0267 610.932 57.52C610.079 58.0133 609.132 58.26 608.092 58.26C606.986 58.26 606.006 58.0133 605.152 57.52C604.299 57.0133 603.626 56.32 603.132 55.44C602.652 54.5467 602.412 53.52 602.412 52.36C602.412 51.1867 602.652 50.16 603.132 49.28C603.626 48.4 604.299 47.7133 605.152 47.22C606.006 46.7267 606.986 46.48 608.092 46.48C609.132 46.48 610.079 46.7267 610.932 47.22C611.799 47.7133 612.539 48.4 613.152 49.28C613.766 50.16 614.212 51.1867 614.492 52.36ZM604.292 52.36C604.292 53.2133 604.466 53.9667 604.812 54.62C605.172 55.2733 605.659 55.7867 606.272 56.16C606.899 56.52 607.606 56.7 608.392 56.7C609.192 56.7 609.926 56.52 610.592 56.16C611.272 55.7867 611.872 55.2733 612.392 54.62C612.926 53.9667 613.359 53.2133 613.692 52.36C613.359 51.5067 612.926 50.7533 612.392 50.1C611.872 49.4467 611.272 48.94 610.592 48.58C609.926 48.2067 609.192 48.02 608.392 48.02C607.606 48.02 606.899 48.2067 606.272 48.58C605.659 48.94 605.172 49.4467 604.812 50.1C604.466 50.7533 604.292 51.5067 604.292 52.36ZM617.884 46.74H619.724L620.364 50.58V58H618.524V50.24L617.884 46.74ZM626.344 46.7V48.36C626.091 48.28 625.791 48.22 625.444 48.18C625.111 48.14 624.791 48.12 624.484 48.12C623.684 48.12 622.971 48.3 622.344 48.66C621.718 49.02 621.231 49.5467 620.884 50.24C620.538 50.92 620.364 51.7267 620.364 52.66L619.844 51.94C619.871 51.1533 619.998 50.4267 620.224 49.76C620.451 49.0933 620.771 48.52 621.184 48.04C621.611 47.5467 622.118 47.1667 622.704 46.9C623.304 46.62 623.978 46.48 624.724 46.48C625.004 46.48 625.291 46.5 625.584 46.54C625.891 46.58 626.144 46.6333 626.344 46.7ZM635.414 43H636.994C636.087 44.4133 635.42 45.8133 634.994 47.2C634.567 48.5867 634.354 50.0067 634.354 51.46C634.354 52.9 634.567 54.3133 634.994 55.7C635.42 57.0867 636.087 58.4933 636.994 59.92H635.414C634.414 58.5333 633.667 57.1467 633.174 55.76C632.694 54.3733 632.454 52.94 632.454 51.46C632.454 49.98 632.694 48.5467 633.174 47.16C633.667 45.7733 634.414 44.3867 635.414 43ZM645.808 50.42H647.468V52.88C647.468 53.76 647.595 54.48 647.848 55.04C648.115 55.6 648.475 56.02 648.928 56.3C649.395 56.5667 649.915 56.7 650.488 56.7C651.141 56.7 651.721 56.56 652.228 56.28C652.735 55.9867 653.135 55.5467 653.428 54.96C653.721 54.36 653.868 53.6133 653.868 52.72C653.868 51.4 653.515 50.3333 652.808 49.52C652.101 48.7067 651.128 48.24 649.888 48.12V46.48C651.088 46.5733 652.121 46.9 652.988 47.46C653.855 48.0067 654.515 48.74 654.968 49.66C655.435 50.5667 655.668 51.6067 655.668 52.78C655.668 53.94 655.455 54.9333 655.028 55.76C654.601 56.5733 654.015 57.1933 653.268 57.62C652.535 58.0467 651.681 58.26 650.708 58.26C649.895 58.26 649.161 58.08 648.508 57.72C647.855 57.3467 647.341 56.7867 646.968 56.04C646.595 55.28 646.415 54.3333 646.428 53.2H646.848C646.861 54.3333 646.681 55.28 646.308 56.04C645.935 56.7867 645.421 57.3467 644.768 57.72C644.128 58.08 643.395 58.26 642.568 58.26C641.608 58.26 640.755 58.0467 640.008 57.62C639.261 57.1933 638.675 56.5733 638.248 55.76C637.821 54.9333 637.608 53.94 637.608 52.78C637.608 51.6067 637.835 50.5667 638.288 49.66C638.755 48.74 639.421 48.0067 640.288 47.46C641.155 46.9 642.188 46.5733 643.388 46.48V48.12C642.148 48.24 641.175 48.7067 640.468 49.52C639.761 50.3333 639.408 51.4 639.408 52.72C639.408 53.6133 639.555 54.36 639.848 54.96C640.141 55.5467 640.541 55.9867 641.048 56.28C641.568 56.56 642.148 56.7 642.788 56.7C643.361 56.7 643.875 56.5667 644.328 56.3C644.781 56.02 645.141 55.6 645.408 55.04C645.675 54.48 645.808 53.76 645.808 52.88V50.42ZM657.892 43C658.879 44.3867 659.612 45.7733 660.092 47.16C660.586 48.5467 660.832 49.98 660.832 51.46C660.832 52.94 660.586 54.3733 660.092 55.76C659.612 57.1467 658.879 58.5333 657.892 59.92H656.312C657.206 58.4933 657.866 57.0867 658.292 55.7C658.719 54.3133 658.932 52.9 658.932 51.46C658.932 50.0067 658.719 48.5867 658.292 47.2C657.866 45.8133 657.206 44.4133 656.312 43H657.892Z" fill="#8AC926"/>
<path d="M512.49 21.5C512.597 20.5933 512.93 19.78 513.49 19.06C514.063 18.34 514.85 17.7733 515.85 17.36C516.85 16.9467 518.037 16.74 519.41 16.74C520.663 16.74 521.743 16.9067 522.65 17.24C523.557 17.5733 524.257 18.04 524.75 18.64C525.257 19.24 525.51 19.9467 525.51 20.76C525.51 21.4533 525.303 22.08 524.89 22.64C524.477 23.1867 523.87 23.62 523.07 23.94C522.27 24.26 521.29 24.42 520.13 24.42V24.06C521.317 24.02 522.337 24.1467 523.19 24.44C524.043 24.72 524.697 25.14 525.15 25.7C525.617 26.2467 525.85 26.9133 525.85 27.7C525.85 28.5933 525.59 29.3867 525.07 30.08C524.55 30.76 523.79 31.2933 522.79 31.68C521.803 32.0667 520.59 32.26 519.15 32.26C517.75 32.26 516.53 32.0533 515.49 31.64C514.45 31.2267 513.637 30.6467 513.05 29.9C512.463 29.1533 512.13 28.2867 512.05 27.3H513.95C514.083 28.3667 514.59 29.2 515.47 29.8C516.363 30.3867 517.59 30.68 519.15 30.68C520.697 30.68 521.877 30.4133 522.69 29.88C523.517 29.3333 523.93 28.5733 523.93 27.6C523.93 27.04 523.79 26.5667 523.51 26.18C523.23 25.7933 522.777 25.5 522.15 25.3C521.523 25.0867 520.703 24.98 519.69 24.98H516.89V23.52H519.69C521.023 23.52 522.003 23.28 522.63 22.8C523.27 22.3067 523.59 21.7 523.59 20.98C523.59 20.1133 523.217 19.4533 522.47 19C521.723 18.5467 520.67 18.32 519.31 18.32C517.91 18.32 516.777 18.6 515.91 19.16C515.057 19.7067 514.55 20.4867 514.39 21.5H512.49ZM535.513 16.74C536.633 16.74 537.633 16.9133 538.513 17.26C539.393 17.5933 540.113 18.06 540.673 18.66C541.246 19.2467 541.606 19.9333 541.753 20.72H539.893C539.639 20.0267 539.159 19.4533 538.453 19C537.759 18.5467 536.786 18.32 535.533 18.32C534.279 18.32 533.233 18.5733 532.393 19.08C531.566 19.5733 530.946 20.28 530.533 21.2C530.133 22.12 529.933 23.2067 529.933 24.46C529.933 25.7267 530.146 26.8267 530.573 27.76C531.013 28.6933 531.653 29.4133 532.493 29.92C533.346 30.4133 534.393 30.66 535.633 30.66C536.606 30.66 537.433 30.52 538.113 30.24C538.806 29.9467 539.333 29.54 539.693 29.02C540.053 28.4867 540.233 27.88 540.233 27.2C540.233 26.5467 540.066 25.98 539.733 25.5C539.413 25.0067 538.939 24.6267 538.313 24.36C537.686 24.0933 536.933 23.96 536.053 23.96C534.706 23.96 533.506 24.2933 532.453 24.96C531.413 25.6133 530.526 26.4733 529.793 27.54L528.933 26.88C529.426 26.0133 530.026 25.24 530.733 24.56C531.453 23.88 532.279 23.3467 533.213 22.96C534.146 22.56 535.179 22.36 536.313 22.36C537.473 22.36 538.486 22.5533 539.353 22.94C540.233 23.3267 540.919 23.88 541.413 24.6C541.906 25.3067 542.153 26.16 542.153 27.16C542.153 28.1733 541.879 29.0667 541.333 29.84C540.786 30.6 540.026 31.1933 539.053 31.62C538.079 32.0467 536.939 32.26 535.633 32.26C534.019 32.26 532.646 31.9333 531.513 31.28C530.393 30.6133 529.539 29.7 528.953 28.54C528.366 27.3667 528.073 26.02 528.073 24.5C528.073 22.9667 528.359 21.62 528.933 20.46C529.506 19.2867 530.346 18.3733 531.453 17.72C532.573 17.0667 533.926 16.74 535.513 16.74ZM551.905 32.26C550.305 32.26 548.925 31.94 547.765 31.3C546.618 30.6467 545.738 29.74 545.125 28.58C544.512 27.42 544.205 26.06 544.205 24.5C544.205 22.94 544.512 21.58 545.125 20.42C545.738 19.26 546.618 18.36 547.765 17.72C548.925 17.0667 550.305 16.74 551.905 16.74C553.505 16.74 554.878 17.0667 556.025 17.72C557.172 18.36 558.052 19.26 558.665 20.42C559.278 21.58 559.585 22.94 559.585 24.5C559.585 26.0467 559.278 27.4067 558.665 28.58C558.052 29.74 557.172 30.6467 556.025 31.3C554.878 31.94 553.505 32.26 551.905 32.26ZM551.905 30.66C553.718 30.66 555.132 30.12 556.145 29.04C557.158 27.96 557.665 26.4467 557.665 24.5C557.665 22.5533 557.158 21.04 556.145 19.96C555.132 18.8667 553.718 18.32 551.905 18.32C550.078 18.32 548.658 18.8667 547.645 19.96C546.632 21.04 546.125 22.5533 546.125 24.5C546.125 26.4467 546.632 27.96 547.645 29.04C548.658 30.12 550.078 30.66 551.905 30.66ZM564.704 21.86C564.144 21.86 563.644 21.76 563.204 21.56C562.777 21.3467 562.444 21.0533 562.204 20.68C561.964 20.2933 561.844 19.8533 561.844 19.36C561.844 18.8533 561.964 18.4133 562.204 18.04C562.444 17.6667 562.777 17.3733 563.204 17.16C563.644 16.9467 564.144 16.84 564.704 16.84C565.277 16.84 565.777 16.9467 566.204 17.16C566.631 17.3733 566.964 17.6667 567.204 18.04C567.444 18.4133 567.564 18.8533 567.564 19.36C567.564 19.8533 567.444 20.2933 567.204 20.68C566.964 21.0533 566.631 21.3467 566.204 21.56C565.777 21.76 565.277 21.86 564.704 21.86ZM564.704 20.82C565.224 20.82 565.624 20.6933 565.904 20.44C566.184 20.1733 566.324 19.8133 566.324 19.36C566.324 18.8933 566.184 18.5333 565.904 18.28C565.624 18.0133 565.224 17.88 564.704 17.88C564.184 17.88 563.784 18.0133 563.504 18.28C563.224 18.5333 563.084 18.8933 563.084 19.36C563.084 19.8133 563.224 20.1733 563.504 20.44C563.784 20.6933 564.184 20.82 564.704 20.82Z" fill="#8AC926"/>
<line x1="355" y1="37.5" x2="725" y2="37.5" stroke="white"/>
</svg>
